<svg xmlns:mydata="http://www.w3.org/2000/svg" mydata:contrastcolor="25142d" mydata:template="Contrast" mydata:presentation="2.5" mydata:layouttype="undefined" mydata:specialfontid="undefined" mydata:id1="884" mydata:id2="026" mydata:companyname="Youtube Podcast" mydata:companytagline="" version="1.1" xmlns="http://www.w3.org/2000/svg" xmlns:xlink="http://www.w3.org/1999/xlink" viewBox="0 35 550 400"><defs><linearGradient x1="194.74692" y1="235" x2="355.25308" y2="235" gradientUnits="userSpaceOnUse" id="color-13160212752"><stop offset="0" stop-color="#7b4397"></stop><stop offset="1" stop-color="#dc2430"></stop></linearGradient></defs><g fill="url(#color-13160212752)" fill-rule="none" stroke="none" stroke-width="1" stroke-linecap="butt" stroke-linejoin="miter" stroke-miterlimit="10" stroke-dasharray="" stroke-dashoffset="0" font-family="none" font-weight="none" font-size="none" text-anchor="none" style="mix-blend-mode: normal"><g data-paper-data="{&quot;isGlobalGroup&quot;:true,&quot;bounds&quot;:{&quot;x&quot;:194.74692263583188,&quot;y&quot;:115.00000000000003,&quot;width&quot;:160.50615472833624,&quot;height&quot;:240.00000000000003}}"><g data-paper-data="{&quot;stacked&quot;:true,&quot;isPrimaryText&quot;:true}" fill-rule="nonzero"><path d="M196.4545,298.05886c0.97576,-0.27521 3.37763,-0.30023 4.97887,-0.17514c1.10086,0.07506 1.62627,0.67553 1.62627,1.62627c0,0.7756 -0.02502,1.75136 -0.02502,2.42689c-0.02502,1.00078 0.02502,0.87568 0.62549,0.87568c2.52697,0 4.35339,-0.07506 5.20405,-0.05004c0.95074,0.02502 0.80062,-0.02502 0.80062,-0.75058c0,-1.9265 0.20016,-5.20405 -0.15012,-6.95541c-0.1251,-0.32525 -0.25019,-0.55043 -0.50039,-0.65051c-2.60202,-0.92572 -11.93429,1.35105 -13.3604,-1.72634c-1.45113,-4.15323 -0.72556,-14.53631 -0.72556,-19.18993c0,-1.37607 0.60047,-1.72634 1.45113,-1.75136c0.57545,0 1.87646,-0.07506 4.10319,0c1.22595,0.05004 2.25175,-0.20016 2.25175,0.65051l-0.02502,2.22673c0,2.72712 -0.22518,6.20483 -0.15012,9.2572c0.10008,3.15245 -0.17514,3.07739 1.85144,3.05238c1.37607,0 3.32759,0.20016 4.45347,0.05004c1.0258,-0.1251 0.87568,-0.42533 0.92572,-1.40109c0.15012,-2.77716 0.05004,-9.6325 -0.07506,-12.40966c-0.05004,-1.40109 0.92572,-1.42611 2.10164,-1.42611c0.97576,-0.02502 2.07662,-0.10008 3.17747,-0.02502c0.65051,0.05004 0.97576,0.70055 1.12588,1.47615c0.52541,2.87724 0.25019,24.34394 0.17514,33.22586c-0.02502,2.45191 -1.22595,3.7279 -1.70132,3.7279c-1.1509,0 -2.37685,0.05004 -3.42767,0c-1.40109,-0.05004 -6.58012,0.20016 -11.28378,0.05004c-2.7021,-0.07506 -3.82798,0.32525 -4.15323,-0.85066c-0.50039,-1.75136 -0.35027,-6.50506 -0.22518,-9.20716c0.05004,-0.9007 -0.15012,-1.82642 0.95074,-2.07662z" data-paper-data="{&quot;glyphName&quot;:&quot;Y&quot;,&quot;glyphIndex&quot;:0,&quot;firstGlyphOfWord&quot;:true,&quot;word&quot;:1,&quot;line&quot;:1,&quot;firstGlyphOfFirstLine&quot;:true}" fill="#ffffff"></path><path d="M239.48799,298.20898c0.85066,-5.55432 1.32603,-18.28923 0.17514,-23.5183c-0.70055,-3.07739 -21.842,-5.30413 -22.24231,2.22673c-0.25019,4.70366 -0.47537,20.16569 1.0258,22.96787c1.0258,1.97654 3.6028,1.32603 5.45424,1.37607c3.22751,0.10008 8.68176,0 12.2095,-0.02502c2.22673,0 3.05238,-0.82564 3.37763,-3.02736zM227.50366,290.80322c-0.05004,-2.60202 0,-4.05315 0,-5.57934c0.02502,-1.72634 3.40265,-1.20093 3.47771,-0.30023c0.07506,0.95074 0.17514,2.67708 0.07506,5.47926c-0.02502,1.07584 0.10008,1.55121 -0.37529,1.65129c-0.47537,0.10008 -2.37685,0.1251 -2.80218,0.05004c-0.42533,-0.07506 -0.37529,-0.62549 -0.37529,-1.30101zM225.10179,292.30438c-0.10008,-4.05315 0.02502,-6.27989 0.05004,-8.65674c0,-2.67708 7.88113,-1.87646 8.05627,-0.50039c0.20016,1.47615 0.42533,4.17825 0.22518,8.53164c-0.10008,1.82642 0.35027,2.40187 -1.05082,2.50195c-1.42611,0.10008 -4.42845,0.02502 -5.90459,0.1251c-1.55121,0.10008 -1.32603,-0.7756 -1.37607,-2.00156zM237.46141,310.3184h-16.53787c-1.60125,0 -1.65129,-3.07739 -1.55121,-5.35417c0.07506,-1.30101 0.22518,-2.32681 1.27599,-2.32681h16.51285c1.1509,0 0.95074,1.47615 1.05082,2.90226c0.1251,2.22673 -0.02502,4.77872 -0.75058,4.77872z" data-paper-data="{&quot;glyphName&quot;:&quot;จ&quot;,&quot;glyphIndex&quot;:1,&quot;word&quot;:1,&quot;line&quot;:1}" fill="#ffffff"></path><path d="M260.80458,310.3184c1.70132,-0.05004 2.02658,-0.1251 2.35183,-2.20171c0.32525,-12.50973 -0.35027,-21.09141 0,-33.75126c0.05004,-1.85144 0,-2.42689 -1.87646,-2.42689c-0.75058,0 -3.30257,-0.10008 -3.853,0.05004c-0.97576,0.30023 -0.7756,1.32603 -0.82564,2.17669c-0.07506,8.3565 -0.22518,17.61371 -0.17514,25.46982c0.02502,0.7756 0.05004,3.27755 -1.05082,3.27755c-0.70055,0 -2.62704,0.07506 -4.55354,0.07506c-1.17592,0 -1.47615,-0.70055 -1.45113,-1.72634c0.35027,-8.08129 0.40031,-18.18915 0.02502,-28.272c-0.02502,-0.57545 -0.20016,-1.05082 -1.30101,-1.10086c-1.90148,0 -3.87802,-0.05004 -5.75448,0c-0.57545,0.02502 -0.65051,0.20016 -0.65051,1.27599c0.02502,22.04215 -0.27521,33.42601 -0.15012,34.30169c0.05004,0.80062 0.30023,1.42611 0.65051,1.82642c0.9007,1.05082 3.7279,1.0258 5.02891,1.0258c5.15401,0 8.40654,0.07506 13.58557,0z" data-paper-data="{&quot;glyphName&quot;:&quot;U&quot;,&quot;glyphIndex&quot;:2,&quot;word&quot;:1,&quot;line&quot;:1}" fill="#ffffff"></path><path d="M282.59654,308.66712c0.80062,-2.12665 0.57545,-6.27989 0.55043,-8.08129c-0.05004,-1.9265 -4.82876,-1.47615 -4.8788,0.15012c-0.02502,0.75058 0.05004,1.6763 -0.17514,2.10164c-0.07506,0.15012 -1.00078,0.22518 -1.07584,0.05004c-0.15012,-0.37529 -0.02502,-14.08596 0,-14.136c0.10008,-0.27521 0,-0.47537 1.40109,-0.40031c1.57623,-0.05004 2.92728,0.07506 5.07895,-0.02502c0.75058,-0.10008 0.87568,-4.95386 -0.20016,-5.12899c-1.70132,-0.10008 -3.37763,0.02502 -5.45424,-0.07506c-0.25019,0.02502 -0.9007,-0.07506 -0.9007,-0.47537c0.05004,-1.82642 0.02502,-3.02736 0.02502,-3.82798c0,-0.85066 -0.45035,-1.05082 -1.60125,-1.05082c-1.6763,0 -3.07739,-0.10008 -4.77872,0c-0.7756,0.05004 -1.20093,0.75058 -1.25097,2.17669c0,0.17514 0,1.20093 0,2.62704c0,0.65051 0.10008,0.55043 -0.52541,0.55043c-1.57623,0 -1.95152,-0.02502 -3.42767,-0.02502c-0.80062,0 -1.32603,0.50039 -1.32603,1.22595c0,1.00078 -0.15012,2.37685 -0.02502,3.30257c0.07506,0.60047 0.42533,0.87568 1.77638,0.9007c1.0258,0 0.95074,-0.05004 2.10164,0c0.62549,0.05004 1.22595,-0.07506 1.40109,0.57545c0.32525,2.20171 -0.65051,13.76071 0.47537,18.18915c0.30023,1.17592 1.12588,2.67708 2.40187,2.8272c1.87646,0.22518 4.97887,0.20016 7.38074,0.20016c1.45113,0.02502 2.65206,-0.67553 3.02736,-1.65129zM276.49179,277.26768h-6.02969c-0.20016,0 -0.32525,-0.40031 -0.37529,-0.97576c-0.05004,-0.62549 -0.05004,-1.47615 -0.05004,-2.25175c0,-0.67553 0,-1.27599 0.05004,-1.72634c0.07506,-0.82564 0.47537,-0.60047 0.75058,-0.60047h5.55432c0.22518,0 0.27521,0.32525 0.30023,0.82564c0,0.95074 -0.07506,3.05238 -0.10008,4.20327c0,0.32525 -0.02502,0.52541 -0.10008,0.52541z" data-paper-data="{&quot;glyphName&quot;:&quot;ฝ&quot;,&quot;glyphIndex&quot;:3,&quot;word&quot;:1,&quot;line&quot;:1}" fill="#ffffff"></path><path d="M304.43853,310.3184c1.70132,-0.05004 2.02658,-0.1251 2.35183,-2.20171c0.32525,-12.50973 -0.35027,-21.09141 0,-33.75126c0.05004,-1.85144 0,-2.42689 -1.87646,-2.42689c-0.75058,0 -3.30257,-0.10008 -3.853,0.05004c-0.97576,0.30023 -0.7756,1.32603 -0.82564,2.17669c-0.07506,8.3565 -0.22518,17.61371 -0.17514,25.46982c0.02502,0.7756 0.05004,3.27755 -1.05082,3.27755c-0.70055,0 -2.62704,0.07506 -4.55354,0.07506c-1.17592,0 -1.47615,-0.70055 -1.45113,-1.72634c0.35027,-8.08129 0.40031,-18.18915 0.02502,-28.272c-0.02502,-0.57545 -0.20016,-1.05082 -1.30101,-1.10086c-1.90148,0 -3.87802,-0.05004 -5.75448,0c-0.57545,0.02502 -0.65051,0.20016 -0.65051,1.27599c0.02502,22.04215 -0.27521,33.42601 -0.15012,34.30169c0.05004,0.80062 0.30023,1.42611 0.65051,1.82642c0.9007,1.05082 3.7279,1.0258 5.02891,1.0258c5.15401,0 8.40654,0.07506 13.58557,0z" data-paper-data="{&quot;glyphName&quot;:&quot;U&quot;,&quot;glyphIndex&quot;:4,&quot;word&quot;:1,&quot;line&quot;:1}" fill="#ffffff"></path><path d="M331.30944,310.11825c1.22595,-0.05004 1.07584,-0.40031 1.42611,-2.02658c0.95074,-4.35339 1.57623,-16.56289 0.1251,-20.79118c-0.15012,-0.40031 -0.40031,-0.60047 -1.12588,-0.52541c-0.95074,0.07506 -1.00078,0 -1.0258,-0.22518c-0.07506,-0.27521 -0.02502,-0.75058 0,-1.57623c0,-1.57623 0.10008,-4.70366 0,-7.3307c-0.10008,-2.17669 -0.20016,-3.9781 -1.57623,-4.6286c-3.853,-1.85144 -12.88503,-1.72634 -16.8381,-0.70055c-1.55121,0.40031 -2.75214,0.82564 -3.52775,1.60125c-0.50039,0.47537 -0.7756,1.9265 -0.9007,3.52775c-0.17514,9.05705 -0.20016,10.78339 -0.20016,10.78339c-0.10008,9.00701 0.02502,18.78962 0.57545,20.64106c0.1251,0.67553 0.45035,1.12588 1.00078,1.17592c3.32759,0.32525 18.38931,0.25019 22.06717,0.07506zM315.5722,294.65621c-0.02502,-0.67553 0.27521,-0.60047 1.87646,-0.75058c2.52697,-0.22518 6.40498,-0.47537 7.28067,-0.50039c0.37529,0 1.37607,0.10008 1.45113,0.52541c0.40031,1.70132 0.10008,5.37919 0.05004,6.50506c-0.05004,1.35105 0.1251,1.50117 -1.35105,1.8014c-1.35105,0.27521 -3.6028,0.27521 -5.47926,0.32525c-0.65051,0.02502 -0.92572,0.05004 -1.47615,0.07506c-1.42611,0 -1.85144,-0.22518 -1.97654,-0.80062c-0.37529,-1.77638 -0.32525,-5.15401 -0.37529,-7.18059zM318.82473,287.22543c-2.22673,0 -2.62704,0.35027 -2.77716,-0.85066c-0.22518,-2.02658 -0.47537,-6.6802 -0.02502,-8.50662c0.20016,-0.72556 5.32915,-0.45035 6.48004,-0.45035c1.0258,0 1.40109,0.92572 1.40109,1.55121c0,2.65206 0,4.07817 0.05004,4.32837c0,0.22518 0,0.42533 0,0.60047l-0.05004,1.25097c-0.10008,1.12588 -0.75058,1.75136 -1.85144,1.9265c-0.7756,0.1251 -1.87646,0.15012 -3.22751,0.15012z" data-paper-data="{&quot;glyphName&quot;:&quot;B&quot;,&quot;glyphIndex&quot;:5,&quot;word&quot;:1,&quot;line&quot;:1}" fill="#ffffff"></path><path d="M347.64716,286.97524c-0.52541,0 -1.40109,-0.1251 -2.57701,-0.40031c-0.47537,-0.10008 -0.55043,0.02502 -0.52541,-0.65051c0.02502,-0.67553 0.17514,-1.37607 0.17514,-1.6763c0.37529,-0.1251 3.32759,-0.07506 3.32759,0.1251c0,0.47537 0,0.60047 -0.02502,1.20093c-0.02502,0.42533 -0.05004,0.75058 -0.07506,0.97576c-0.05004,0.35027 -0.02502,0.42533 -0.30023,0.42533zM353.42666,309.5428c1.20093,-1.07584 1.45113,-5.75448 1.37607,-8.05627c-0.05004,-1.52619 -0.15012,-1.60125 -1.47615,-1.70132c-1.1509,-0.07506 -2.20171,0 -3.32759,0c-0.47537,0 -0.75058,0.15012 -0.80062,0.47537c-0.02502,0.27521 -0.05004,0.80062 -0.07506,1.57623c0,0.82564 0.1251,0.72556 -0.57545,0.72556c-2.00156,-0.05004 -3.82798,0 -5.72946,-0.02502c-0.47537,-0.02502 -0.42533,0.15012 -0.42533,-0.45035c0.05004,-2.27677 0.10008,-4.55354 0.10008,-6.83032v-0.32525c0,-0.42533 0.05004,-0.65051 0.1251,-0.72556c0.07506,-0.05004 0.22518,-0.10008 0.40031,-0.10008l0.7756,0.05004c0.65051,0.05004 1.42611,0.10008 2.27677,0.17514c2.12665,0.1251 3.57778,0.22518 4.37841,0.22518c2.45191,0 3.80296,-0.30023 3.9781,-0.95074c0.52541,-2.47693 0.82564,-5.22907 0.82564,-8.3565c0,-2.25175 -0.20016,-4.15323 -0.55043,-5.62938c-0.32525,-1.1509 -0.75058,-2.15167 -1.30101,-2.27677c-0.30023,-0.02502 -0.62549,-0.05004 -0.95074,-0.07506c-4.92884,-0.30023 -9.70755,-0.17514 -14.63639,0.02502c-3.7279,0.15012 -3.10241,14.06094 -3.10241,17.7388c0,4.32837 0.17514,8.30646 0.50039,11.93429l0.05004,0.40031c0.02502,0.80062 0.17514,1.45113 0.37529,1.85144c0.17514,0.42533 0.70055,0.65051 1.47615,0.70055c2.32681,0.15012 14.51129,0.40031 16.31269,-0.37529zM349.09829,288.50142c-1.10086,0 -2.87724,-0.30023 -5.32915,-0.85066c-1.0258,-0.22518 -1.17592,0.05004 -1.12588,-1.35105c0.05004,-1.40109 0.37529,-2.85222 0.37529,-3.47771c0.80062,-0.25019 6.93039,-0.17514 6.93039,0.22518c0,1.0258 -0.02502,1.30101 -0.07506,2.52697c-0.05004,0.85066 -0.10008,1.52619 -0.15012,2.00156c-0.10008,0.75058 -0.02502,0.92572 -0.62549,0.92572z" data-paper-data="{&quot;glyphName&quot;:&quot;ฒ&quot;,&quot;glyphIndex&quot;:6,&quot;lastGlyphOfWord&quot;:true,&quot;word&quot;:1,&quot;line&quot;:1,&quot;lastGlyphOfFirstLine&quot;:true}" fill="#ffffff"></path><path d="M202.78003,353.32501c0,-1.51253 -0.05042,-3.37799 -0.02521,-5.04178c0.05042,-1.51253 0,-2.92423 0,-3.983c0,-0.78148 0.10084,-1.36128 1.00836,-1.33607c2.19317,0 9.25166,-0.15125 11.3692,-0.37813c0.80668,-0.07563 1.38649,-0.80668 1.76462,-1.9915c0.8571,-2.67214 0.73106,-11.89859 0.50418,-17.74705c-0.10084,-2.42005 0.15125,-4.46197 -1.00836,-5.672c-0.50418,-0.5546 -1.23524,-0.90752 -3.37799,-1.05877c-3.15111,-0.22688 -12.68007,-0.40334 -15.65471,0.35292c-1.76462,0.47897 -2.31922,1.33607 -2.34443,2.21838c-0.35292,11.77255 -0.32772,22.1334 -0.10084,34.33449c0,0.63022 -0.02521,1.86546 1.03356,1.81504c1.26044,-0.05042 4.23509,0.15125 5.9745,-0.07563c0.75627,-0.10084 0.8571,-0.80668 0.8571,-1.43691zM203.46067,335.62838c-0.52939,-0.12604 -0.5798,-0.40334 -0.5798,-0.8571c0,-3.78133 -0.10084,-8.5206 -0.10084,-12.30193c0,-0.75627 0.32772,-0.78148 1.00836,-0.78148h5.44512c1.05877,0 1.18482,0.37813 1.28565,1.23524c0.32772,2.72256 0.17646,9.12561 0.17646,11.84817c0,0.5798 -0.65543,0.70585 -1.1344,0.78148c-0.5546,0.10084 -5.54595,0.17646 -6.10055,0.07563z" data-paper-data="{&quot;glyphName&quot;:&quot;P&quot;,&quot;glyphIndex&quot;:7,&quot;firstGlyphOfWord&quot;:true,&quot;word&quot;:2,&quot;line&quot;:2,&quot;firstGlyphOfSecondLine&quot;:true}" fill="#ffffff"></path><path d="M240.92107,342.7877c0.8571,-5.59637 1.33607,-18.42769 0.17646,-23.69635c-0.70585,-3.10069 -22.00735,-5.34428 -22.41069,2.24359c-0.25209,4.73927 -0.47897,20.31836 1.03356,23.14175c1.03356,1.9915 3.63008,1.33607 5.49554,1.38649c3.25195,0.10084 8.74748,0 12.30193,-0.02521c2.24359,0 3.07548,-0.83189 3.4032,-3.05027zM228.84601,335.32587c-0.05042,-2.62172 0,-4.08384 0,-5.62158c0.02521,-1.73941 3.42841,-1.21003 3.50403,-0.30251c0.07563,0.95794 0.17646,2.69735 0.07563,5.52074c-0.02521,1.08398 0.10084,1.56295 -0.37813,1.66379c-0.47897,0.10084 -2.39484,0.12604 -2.82339,0.05042c-0.42855,-0.07563 -0.37813,-0.63022 -0.37813,-1.31086zM226.42596,336.8384c-0.10084,-4.08384 0.02521,-6.32743 0.05042,-8.72227c0,-2.69735 7.9408,-1.89067 8.11726,-0.50418c0.20167,1.48732 0.42855,4.20988 0.22688,8.59623c-0.10084,1.84025 0.35292,2.42005 -1.05877,2.52089c-1.43691,0.10084 -4.46197,0.02521 -5.9493,0.12604c-1.56295,0.10084 -1.33607,-0.78148 -1.38649,-2.01671zM238.87915,354.9888h-16.66307c-1.61337,0 -1.66379,-3.10069 -1.56295,-5.3947c0.07563,-1.31086 0.22688,-2.34443 1.28565,-2.34443h16.63786c1.15961,0 0.95794,1.48732 1.05877,2.92423c0.12604,2.24359 -0.02521,4.8149 -0.75627,4.8149z" data-paper-data="{&quot;glyphName&quot;:&quot;จ&quot;,&quot;glyphIndex&quot;:8,&quot;word&quot;:2,&quot;line&quot;:2}" fill="#ffffff"></path><path d="M258.66812,354.9888c1.86546,0 3.55445,-0.47897 4.23509,-2.31922c0.93273,-2.87381 1.56295,-5.99971 1.89067,-9.3777c0.30251,-3.32757 0.42855,-5.9493 0.37813,-7.86517c-0.02521,-1.91587 -0.05042,-3.15111 -0.22688,-8.26851c0,0 -0.07563,-5.1174 -0.42855,-6.45347c-0.42855,-1.51253 -1.28565,-2.64693 -2.74777,-3.37799c-2.89902,-1.33607 -14.06655,-1.7142 -16.63786,-0.73106c-0.8571,0.2773 -1.23524,0.75627 -1.4117,1.36128c-0.8571,3.05027 -0.93273,32.99842 0.42855,35.72098c0.25209,0.5546 0.83189,0.93273 1.63858,1.08398c1.73941,0.30251 6.12576,0.22688 12.88174,0.22688zM253.72718,347.42613c-0.73106,-0.60501 -0.60501,-15.73034 -0.65543,-17.0412l-0.17646,-6.75598c0,-1.28565 -0.30251,-1.78983 0.83189,-1.73941c1.68899,0.07563 2.31922,0.05042 4.03342,0.05042c0.35292,0 0.52939,0.65543 0.70585,1.66379c0.25209,1.38649 0.17646,6.12576 0.22688,8.44497c0.02521,1.4117 -0.2773,15.47825 -0.98315,15.47825c-0.15125,0 -3.70571,0.12604 -3.983,-0.10084z" data-paper-data="{&quot;glyphName&quot;:&quot;D&quot;,&quot;glyphIndex&quot;:9,&quot;word&quot;:2,&quot;line&quot;:2}" fill="#ffffff"></path><path d="M283.77616,354.83754c3.57966,0 3.05027,-5.99971 2.59651,-8.36935c-0.20167,-0.95794 -0.50418,-1.68899 -1.00836,-1.68899c-0.78148,0 -3.1259,0.05042 -4.8149,0.15125c-0.2773,0.02521 -0.68064,0.20167 -0.65543,0.68064c0,0.2773 0.02521,0.60501 0.02521,0.8571c0,0.5798 0.02521,0.75627 -0.47897,0.75627c-1.66379,-0.02521 -2.99986,-0.05042 -3.95779,-0.05042c-2.09234,0 -1.51253,-0.93273 -1.48732,-2.8486c0.05042,-6.98286 0.42855,-13.638 0.8571,-20.64607c0.05042,-1.03356 0.20167,-1.36128 0.63022,-1.48732c0.75627,-0.20167 3.45362,-0.22688 4.20988,-0.02521c0.20167,0.07563 0,1.91587 0.10084,2.69735c0.07563,0.8571 0.40334,1.28565 1.1344,1.36128c0.63022,0.07563 4.8401,0.10084 5.26866,-0.25209c0.98315,-0.80668 0.47897,-6.70556 0.20167,-8.39456c-0.37813,-2.57131 -19.23437,-1.36128 -19.68813,-0.10084c-0.42855,1.18482 -0.37813,10.7894 -0.47897,12.52881c-0.25209,7.33578 -0.40334,12.5036 -0.40334,15.57909c0,5.04178 0.40334,9.25166 6.60473,9.25166z" data-paper-data="{&quot;glyphName&quot;:&quot;C&quot;,&quot;glyphIndex&quot;:10,&quot;word&quot;:2,&quot;line&quot;:2}" fill="#ffffff"></path><path d="M311.45551,346.66987c0.42855,-0.10084 0.5798,-0.70585 0.63022,-1.43691c0.22688,-3.60487 0.73106,-22.9905 -0.35292,-27.62893c-0.63022,-2.69735 -17.49496,-1.48732 -20.74691,-0.52939c-2.21838,0.65543 -1.21003,5.29386 -0.12604,5.79804c0.93273,0.40334 5.14261,0.47897 6.98286,0.25209c0.30251,-0.02521 0.47897,-0.12604 0.5546,-0.8571c0.07563,-0.63022 0.47897,-0.52939 1.18482,-0.5546c0.60501,-0.02521 3.30236,0.02521 3.983,0.05042c0.30251,0.02521 0.5798,-0.10084 0.68064,0.05042c0.30251,0.45376 0,1.9915 0,2.8486c-0.98315,0.37813 -4.86531,0.07563 -7.36099,0.07563c-1.26044,0 -2.47047,0.05042 -3.55445,0.15125c-1.1344,0.12604 -2.01671,0.40334 -2.69735,0.88231c-0.65543,0.60501 -1.15961,1.81504 -1.53774,3.65529c-0.8571,4.20988 -1.53774,9.83146 -0.37813,13.99093c0.5798,2.21838 3.88217,2.42005 5.57116,2.42005c4.2603,0 8.01642,0.05042 11.3692,0.05042c0.8571,0 0.25209,0.47897 0.90752,0.78148c0.80668,0.35292 4.20988,0.22688 4.89052,0zM310.34632,354.9888h-19.33521c-2.97465,0 -3.65529,-7.73913 -0.30251,-7.73913h19.31c3.42841,0 1.76462,7.73913 0.32772,7.73913zM295.75038,338.30052c-2.11755,-0.42855 -1.66379,-4.18467 -0.83189,-5.19303c0.68064,-0.83189 6.75598,-1.58816 7.78954,-1.58816c1.86546,0 1.86546,6.45347 0.93273,6.8064c-1.38649,0.50418 -6.45347,0.2773 -7.89038,-0.02521z" data-paper-data="{&quot;glyphName&quot;:&quot;ฎ&quot;,&quot;glyphIndex&quot;:11,&quot;word&quot;:2,&quot;line&quot;:2}" fill="#ffffff"></path><path d="M332.75701,353.60231c0.45376,-1.00836 1.53774,-12.52881 0.68064,-18.4529c-0.50418,-3.35278 -0.70585,-3.47883 -3.55445,-3.50403c-3.10069,-0.02521 -2.99986,-0.12604 -7.18453,-0.12604c-0.65543,0 -0.8571,-0.05042 -0.8571,-0.73106c0,-1.56295 0.10084,-6.15097 0.10084,-7.71392c0,-1.36128 -0.17646,-1.08398 0.95794,-1.10919c1.53774,-0.05042 2.74777,-0.02521 3.90738,0c0.05042,0 0.30251,0.12604 0.32772,0.30251c0.05042,0.20167 0.02521,2.47047 0.02521,2.87381c-0.02521,0.2773 0.10084,0.68064 0.78148,0.80668c1.03356,0.17646 3.63008,0.10084 4.66364,0.02521c0.60501,-0.07563 1.03356,-0.15125 1.08398,-0.83189c0.05042,-0.50418 0.05042,-2.89902 0.05042,-3.55445c0,-1.7142 -0.10084,-3.65529 -0.12604,-4.18467c0,-0.35292 -0.35292,-0.65543 -0.95794,-0.83189c-3.37799,-0.98315 -17.24287,-0.20167 -17.74705,0.07563c-0.63022,0.32772 -0.8571,1.03356 -0.8571,2.69735c0,5.64679 0.02521,11.31879 0.02521,16.96558c0,3.15111 0.47897,3.4032 3.1259,3.4032c1.94108,0 5.49554,0.07563 7.83996,0.10084c1.21003,0.02521 2.04192,0.63022 2.06713,1.7142c0.02521,1.51253 0,3.1259 0,4.66364c0,0.68064 0.07563,1.31086 -1.00836,1.33607c-1.18482,0.05042 -2.92423,0.02521 -3.983,0.02521c-0.32772,0 -0.37813,-0.35292 -0.37813,-0.73106c0,-1.21003 -0.12604,-2.36963 -0.12604,-3.55445c-0.02521,-0.95794 -5.92409,-1.26044 -7.36099,-0.10084c-0.63022,0.52939 -0.47897,10.2096 -0.10084,11.0667c0.30251,0.68064 1.1344,0.75627 2.09234,0.75627c3.20153,-0.05042 7.43662,0.02521 11.14232,0c0.70585,0 1.46211,0.02521 2.42005,0c1.36128,-0.05042 2.47047,-0.2773 2.94944,-1.38649z" data-paper-data="{&quot;glyphName&quot;:&quot;S&quot;,&quot;glyphIndex&quot;:12,&quot;word&quot;:2,&quot;line&quot;:2}" fill="#ffffff"></path><path d="M353.75601,353.32501c0.80668,-2.14275 0.5798,-6.32743 0.5546,-8.14247c-0.05042,-1.94108 -4.86531,-1.48732 -4.91573,0.15125c-0.02521,0.75627 0.05042,1.68899 -0.17646,2.11755c-0.07563,0.15125 -1.00836,0.22688 -1.08398,0.05042c-0.15125,-0.37813 -0.02521,-14.1926 0,-14.24302c0.10084,-0.2773 0,-0.47897 1.4117,-0.40334c1.58816,-0.05042 2.94944,0.07563 5.1174,-0.02521c0.75627,-0.10084 0.88231,-4.99136 -0.20167,-5.16782c-1.7142,-0.10084 -3.4032,0.02521 -5.49554,-0.07563c-0.25209,0.02521 -0.90752,-0.07563 -0.90752,-0.47897c0.05042,-1.84025 0.02521,-3.05027 0.02521,-3.85696c0,-0.8571 -0.45376,-1.05877 -1.61337,-1.05877c-1.68899,0 -3.10069,-0.10084 -4.8149,0c-0.78148,0.05042 -1.21003,0.75627 -1.26044,2.19317c0,0.17646 0,1.21003 0,2.64693c0,0.65543 0.10084,0.5546 -0.52939,0.5546c-1.58816,0 -1.96629,-0.02521 -3.45362,-0.02521c-0.80668,0 -1.33607,0.50418 -1.33607,1.23524c0,1.00836 -0.15125,2.39484 -0.02521,3.32757c0.07563,0.60501 0.42855,0.88231 1.78983,0.90752c1.03356,0 0.95794,-0.05042 2.11755,0c0.63022,0.05042 1.23524,-0.07563 1.4117,0.5798c0.32772,2.21838 -0.65543,13.86488 0.47897,18.32685c0.30251,1.18482 1.1344,2.69735 2.42005,2.8486c1.89067,0.22688 5.01657,0.20167 7.43662,0.20167c1.46211,0.02521 2.67214,-0.68064 3.05027,-1.66379zM347.60504,321.68787h-6.07534c-0.20167,0 -0.32772,-0.40334 -0.37813,-0.98315c-0.05042,-0.63022 -0.05042,-1.48732 -0.05042,-2.2688c0,-0.68064 0,-1.28565 0.05042,-1.73941c0.07563,-0.83189 0.47897,-0.60501 0.75627,-0.60501h5.59637c0.22688,0 0.2773,0.32772 0.30251,0.83189c0,0.95794 -0.07563,3.07548 -0.10084,4.23509c0,0.32772 -0.02521,0.52939 -0.10084,0.52939z" data-paper-data="{&quot;glyphName&quot;:&quot;ฝ&quot;,&quot;glyphIndex&quot;:13,&quot;lastGlyphOfWord&quot;:true,&quot;word&quot;:2,&quot;line&quot;:2,&quot;lastGlyphOfSecondLine&quot;:true}" fill="#ffffff"></path></g><g data-paper-data="{&quot;isIcon&quot;:&quot;true&quot;,&quot;iconType&quot;:&quot;icon&quot;,&quot;rawIconId&quot;:&quot;29e6564e-457f-4663-8f42-8e7dbede16d4&quot;,&quot;isSvgStockIcon&quot;:true,&quot;selectedEffects&quot;:{&quot;container&quot;:&quot;&quot;,&quot;transformation&quot;:&quot;&quot;,&quot;pattern&quot;:&quot;&quot;},&quot;combineTerms&quot;:&quot;microphone&quot;,&quot;combineTermsExtended&quot;:{&quot;icon&quot;:[&quot;microphone&quot;]},&quot;isDetailed&quot;:false,&quot;fillRule&quot;:&quot;evenodd&quot;,&quot;bounds&quot;:{&quot;x&quot;:234.872354966018,&quot;y&quot;:115.00000000000003,&quot;width&quot;:80.25529006796393,&quot;height&quot;:131.09354303209253},&quot;iconStyle&quot;:&quot;standalone&quot;,&quot;suitableAsStandaloneIcon&quot;:true}" fill-rule="evenodd"><path d="M275.47381,115h4.64807c0.18676,0.01383 0.37351,0.03458 0.56026,0.0415c0.78851,0.01383 1.57011,0.01383 2.35862,0.02767c0.2075,0 0.42192,0.02075 0.62943,0.04842c0.63634,0.08992 1.26577,0.19367 1.90211,0.27667c0.97526,0.1245 1.95053,0.23517 2.92579,0.35967c0.96143,0.1245 1.92978,0.25592 2.89121,0.38734c0.37351,0.04842 0.7401,0.10375 1.09976,0.24208c0.46342,0.17983 0.93377,0.33892 1.4041,0.498c1.07902,0.35275 2.17187,0.67785 3.24396,1.05827c2.2272,0.78851 4.35065,1.78452 6.34959,3.0503c1.75686,1.1136 3.36155,2.40012 4.7449,3.97023c2.71137,3.07796 4.19848,6.66776 4.44056,10.76941c0.02075,0.31126 0.03458,0.6156 0.06225,0.92684c0.02767,0.30434 0.15217,0.42884 0.46342,0.46342h0.06916c0.64326,0.02767 1.16202,0.32509 1.60469,0.77468c0.11067,0.11067 0.18676,0.24208 0.20059,0.40809c0.00692,0.07609 0.0415,0.14525 0.05533,0.22134v65.00381c-0.02075,0.11067 -0.0415,0.21442 -0.04842,0.32509c-0.01383,0.15217 -0.00692,0.31126 -0.01383,0.46342c-0.02767,0.49109 -0.25592,0.86459 -0.66401,1.12052c-0.15909,0.09683 -0.33892,0.17292 -0.51876,0.21442c-0.38734,0.10375 -0.77468,0.18676 -1.16202,0.26284c-0.38042,0.07609 -0.76085,0.13142 -1.14127,0.19367c-0.31126,0.04842 -0.498,0.22134 -0.57409,0.51876c-0.02075,0.083 -0.0415,0.17292 -0.05533,0.25592c-0.17983,0.91993 -0.35275,1.84678 -0.59484,2.75287c-0.89918,3.36155 -2.53846,6.3081 -4.95932,8.81196c-1.41102,1.45944 -2.99496,2.68371 -4.72415,3.74197c-1.99895,1.22427 -4.12931,2.15803 -6.34959,2.91196c-1.2796,0.43575 -2.57995,0.78851 -3.88723,1.12743c-0.05533,0.01383 -0.11067,0.02075 -0.15909,0.0415c-0.05533,0.02075 -0.13142,0.00692 -0.17292,0.10375c0.0415,0.03458 0.08992,0.083 0.13834,0.11758c0.22134,0.166 0.44959,0.32509 0.67092,0.48417c0.44959,0.32509 0.86459,0.69168 1.24502,1.09285c0.25592,0.27667 0.498,0.56026 0.69859,0.88535c0.22825,0.37351 0.38734,0.76776 0.43575,1.21043c0.07609,0.63634 -0.06225,1.23118 -0.38042,1.78452c-0.21442,0.36659 -0.48417,0.68476 -0.78851,0.98218c-0.50493,0.498 -1.08593,0.91301 -1.70153,1.25885c-1.07902,0.6156 -2.2272,1.08593 -3.40305,1.47328c-2.01278,0.65709 -4.08781,1.04444 -6.18359,1.3211c-0.87843,0.11758 -1.75686,0.20059 -2.63529,0.28359c-1.09285,0.10375 -2.1857,0.15909 -3.27855,0.17983c-0.85076,0.01383 -1.70153,0.01383 -2.55921,0c-1.42486,-0.02767 -2.84971,-0.10375 -4.27457,-0.24208c-0.89918,-0.08992 -1.80528,-0.17983 -2.70446,-0.29742c-1.22427,-0.166 -2.44854,-0.38042 -3.65897,-0.65018c-1.71536,-0.38042 -3.40997,-0.85076 -5.06308,-1.45944c-1.17585,-0.43575 -2.30329,-0.96143 -3.36155,-1.64619c-0.62251,-0.40809 -1.21735,-0.85076 -1.73611,-1.37644c-0.33201,-0.33201 -0.6156,-0.69859 -0.83001,-1.1136c-0.50493,-0.97526 -0.47726,-1.9367 0.06916,-2.87738c0.20059,-0.34584 0.45651,-0.65018 0.74701,-0.93377c0.47726,-0.46342 1.00985,-0.85768 1.58394,-1.20352c0.72626,-0.43575 1.49402,-0.76776 2.28254,-1.06518c0.56026,-0.2075 1.12052,-0.40809 1.68078,-0.6156c0.11067,-0.0415 0.23517,-0.05533 0.31817,-0.15909c-0.05533,-0.11067 -0.166,-0.14525 -0.26284,-0.19367c-1.61161,-0.87151 -3.0918,-1.9367 -4.46132,-3.15405c-0.55334,-0.49109 -1.1551,-0.92684 -1.75686,-1.36261c-0.14525,-0.10375 -0.30434,-0.166 -0.49109,-0.166c-0.49109,-0.00692 -0.96143,-0.13142 -1.41794,-0.30434c-0.48417,-0.18676 -0.94068,-0.43575 -1.39027,-0.70551c-1.27269,-0.76085 -2.47621,-1.63236 -3.65206,-2.53846c-1.57702,-1.21043 -2.90505,-2.64913 -4.01172,-4.30223c-1.26577,-1.88828 -2.19953,-3.93564 -2.90505,-6.08676c-0.62251,-1.90903 -1.03751,-3.86647 -1.33494,-5.84467c-0.02767,-0.17292 -0.04842,-0.35275 -0.04842,-0.52567c0,-0.58793 0.20059,-0.80234 0.77468,-0.85076c0.1245,-0.01383 0.24208,-0.00692 0.36659,-0.01383c0.20059,-0.01383 0.40117,-0.02767 0.59484,-0.05533c0.31817,-0.04842 0.45651,-0.21442 0.48417,-0.53259v-1.82603c0,-0.07609 0,-0.15909 -0.02075,-0.22825c-0.03458,-0.17292 -0.13834,-0.30434 -0.31817,-0.35275c-0.10375,-0.02767 -0.21442,-0.0415 -0.32509,-0.04842c-0.37351,-0.02075 -0.75393,-0.03458 -1.12743,-0.05533c-0.11758,-0.00692 -0.24208,-0.03458 -0.35275,-0.06916c-0.22825,-0.06916 -0.38042,-0.22825 -0.43575,-0.46342c-0.03458,-0.14525 -0.06225,-0.30434 -0.06225,-0.45651c-0.00463,-0.65502 -0.00304,-1.3128 -0.00152,-1.9699v-0.00069c0.00076,-0.32785 0.00152,-0.65571 0.00152,-0.98287c0,-0.09683 0.01383,-0.20059 0.02767,-0.29742c0.04842,-0.24901 0.20059,-0.41501 0.44267,-0.498c0.09683,-0.02767 0.19367,-0.05533 0.2905,-0.06225c0.24208,-0.02767 0.48417,-0.03458 0.72626,-0.06225c0.38734,-0.03458 0.56026,-0.2075 0.56718,-0.59484c0.00463,-0.40602 0.00304,-0.81134 0.00152,-1.21735c-0.00076,-0.20266 -0.00152,-0.40602 -0.00152,-0.60867v-0.09683c-0.02075,-0.26975 -0.14525,-0.42884 -0.40809,-0.50493c-0.06225,-0.02075 -0.13142,-0.02767 -0.19367,-0.03458c-0.2075,-0.02075 -0.42192,-0.03458 -0.62943,-0.05533c-0.08992,-0.00692 -0.17983,-0.01383 -0.26284,-0.03458c-0.26284,-0.05533 -0.44267,-0.2075 -0.50493,-0.47034c-0.03458,-0.14525 -0.06225,-0.30434 -0.06225,-0.45651c-0.00692,-0.66401 -0.00692,-1.32802 -0.00692,-1.99203c0,-0.34584 0.00692,-0.68476 0.02075,-1.0306c0.02075,-0.51184 0.20059,-0.71243 0.70551,-0.80234c0.0415,-0.00692 0.08992,-0.01383 0.13142,-0.02075c0.11758,-0.02075 0.24208,-0.0415 0.35967,-0.07609c0.32509,-0.08992 0.43575,-0.22134 0.47034,-0.56026c0,-0.02075 0.00692,-0.0415 0.00692,-0.06916c0,-0.59484 0,-1.1966 -0.00692,-1.79145c0,-0.03458 -0.00692,-0.06916 -0.00692,-0.09683c-0.04842,-0.25592 -0.20059,-0.41501 -0.45651,-0.45651c-0.15217,-0.02767 -0.31126,-0.03458 -0.46342,-0.06225c-0.44267,-0.07609 -0.66401,-0.29742 -0.73318,-0.73318c-0.02767,-0.19367 -0.04842,-0.39426 -0.04842,-0.59484c0.00692,-0.89918 0.02075,-1.79145 0.04842,-2.69062c0.01383,-0.48417 0.2075,-0.69859 0.67785,-0.80234c0.06225,-0.01383 0.13142,-0.02075 0.19367,-0.02767c0.06225,-0.00692 0.13142,-0.01383 0.19367,-0.02767c0.44959,-0.08992 0.58101,-0.23517 0.58793,-0.69859c0.00463,-0.34529 0.00311,-0.69057 0.00152,-1.038c-0.00076,-0.17451 -0.00152,-0.34944 -0.00152,-0.52519c0,-0.07609 -0.00692,-0.15217 -0.01383,-0.22825c-0.0415,-0.24208 -0.17292,-0.40809 -0.41501,-0.47034c-0.10375,-0.02767 -0.21442,-0.0415 -0.32509,-0.06916c-0.15909,-0.0415 -0.32509,-0.07609 -0.47726,-0.1245c-0.24208,-0.083 -0.38042,-0.25592 -0.42884,-0.50493c-0.02767,-0.15909 -0.05533,-0.33201 -0.05533,-0.49109c-0.00692,-0.95451 -0.00692,-1.90211 -0.00692,-2.85663c0,-0.13142 0.02075,-0.26284 0.04842,-0.39426c0.05533,-0.24208 0.2075,-0.41501 0.44267,-0.498c0.13142,-0.04842 0.27667,-0.07609 0.41501,-0.11067c0.17983,-0.0415 0.36659,-0.07609 0.54642,-0.1245c0.20059,-0.05533 0.31126,-0.20059 0.33201,-0.40809c0.01383,-0.13142 0.02075,-0.26284 0.02075,-0.39426c0,-0.34584 -0.00692,-0.68476 -0.01383,-1.0306c0,-0.0415 0,-0.08992 -0.00692,-0.13142c-0.03458,-0.37351 -0.166,-0.53259 -0.51876,-0.64326c-0.07609,-0.02075 -0.15217,-0.03458 -0.22825,-0.05533c-0.20059,-0.05533 -0.40809,-0.11067 -0.60176,-0.17983c-0.29742,-0.11067 -0.46342,-0.33201 -0.51184,-0.64326c-0.02767,-0.18676 -0.05533,-0.37351 -0.05533,-0.56026v-0.00083c-0.00692,-0.91965 -0.01383,-1.83931 -0.00692,-2.75205c0,-0.166 0.02767,-0.33201 0.05533,-0.49109c0.05533,-0.2905 0.22825,-0.50493 0.50493,-0.6156c0.19367,-0.07609 0.40117,-0.13142 0.60176,-0.18676c0.11758,-0.03458 0.24208,-0.04842 0.35275,-0.083c0.26284,-0.08992 0.43575,-0.27667 0.46342,-0.55334c0.03458,-0.31817 0.03458,-0.63634 -0.03458,-0.95451c-0.0415,-0.18676 -0.13834,-0.32509 -0.27667,-0.43575c-0.17292,-0.13834 -0.37351,-0.23517 -0.58793,-0.2905c-0.13142,-0.03458 -0.25592,-0.06225 -0.38734,-0.10375c-0.47726,-0.15909 -0.70551,-0.44959 -0.7401,-0.9476c-0.00692,-0.07609 -0.00692,-0.15217 -0.00692,-0.23517c-0.00692,-0.76085 -0.01383,-1.5286 -0.01383,-2.28945c0,-0.35275 0.00692,-0.70551 0.00692,-1.06518c0,-0.38734 0.18676,-0.67785 0.50493,-0.87843c0.09683,-0.05533 0.19367,-0.10375 0.29742,-0.14525c0.17292,-0.07609 0.34584,-0.13834 0.51876,-0.21442c0.22825,-0.10375 0.40809,-0.26284 0.49109,-0.51184c0.15217,-0.46342 -0.02767,-0.9891 -0.44959,-1.2381c-0.20059,-0.11758 -0.41501,-0.20059 -0.62943,-0.2905c-0.37351,-0.15217 -0.63634,-0.40117 -0.73318,-0.79543c-0.02767,-0.09683 -0.05533,-0.18676 -0.13142,-0.26284v-1.12743c0.083,-0.29742 0.10375,-0.60867 0.11067,-0.91993c0.01383,-0.40809 0.02075,-0.81618 0.03458,-1.22427c0.00692,-0.15217 0.02075,-0.31126 0.04842,-0.46342c0.06225,-0.31126 0.22825,-0.54642 0.498,-0.71243c0.09683,-0.05533 0.20059,-0.09683 0.29742,-0.14525c0.18676,-0.10375 0.37351,-0.19367 0.54642,-0.31126c0.58793,-0.42884 0.58793,-1.1966 0.00692,-1.63236c-0.10375,-0.07609 -0.22825,-0.13834 -0.33892,-0.2075c-0.11758,-0.083 -0.24208,-0.15909 -0.34584,-0.25592c-0.22825,-0.22134 -0.33201,-0.498 -0.30434,-0.80926c0.06225,-0.59484 0.13834,-1.18969 0.21442,-1.77761c0.09683,-0.73318 0.26284,-1.45944 0.42884,-2.17878c0.28359,-1.25194 0.59484,-2.49695 0.9891,-3.71431c0.56026,-1.71536 1.33494,-3.32005 2.38628,-4.79332c2.95346,-4.10856 6.79919,-7.07585 11.53718,-8.86038c1.73611,-0.65709 3.52064,-1.16893 5.31208,-1.66002c1.08593,-0.29742 2.19262,-0.41501 3.32005,-0.36659c0.91993,0.03458 1.83294,0.02075 2.75287,-0.01383c1.48019,-0.05533 2.9673,-0.05533 4.44749,-0.06225c0.39266,-0.0032 0.78526,0.00246 1.17793,0.0081c0.4581,0.00659 0.91627,0.01318 1.37437,0.00574c1.9367,-0.02075 3.87339,-0.04842 5.81009,-0.083c0.07609,-0.02767 0.18676,-0.04842 0.29742,-0.06225zM249.49442,216.82869c-0.01383,-0.13142 -0.11067,-0.22825 -0.18676,-0.33201c-0.96143,-1.33494 -1.76378,-2.75979 -2.41395,-4.26765c-0.51184,-1.18969 -0.92684,-2.41395 -1.13435,-3.70047c-0.00387,-0.02421 -0.00775,-0.04842 -0.01169,-0.07263c-0.05201,-0.32232 -0.10493,-0.65087 -0.09206,-0.98564c0.02075,-0.75393 0.51876,-1.37644 1.24502,-1.57702c0.30434,-0.083 0.58793,-0.06225 0.87843,0.04842c0.2905,0.11067 0.49109,0.30434 0.54642,0.6156c0.03458,0.19367 0.05533,0.39426 0.06225,0.59484c0.02075,0.97526 0.08992,1.94361 0.26284,2.90505c0.24901,1.35568 0.64326,2.66296 1.27269,3.89414c0.83693,1.63927 1.95053,3.08488 3.14713,4.46132c0.083,0.09683 0.17983,0.15909 0.30434,0.19367c0.083,0.02075 0.166,0.06225 0.25592,0.07609c0.26284,0.03458 0.47726,0.166 0.67785,0.32509c0.1245,0.09683 0.24901,0.17983 0.37351,0.27667c0.166,0.1245 0.33201,0.26284 0.498,0.38734c0.06916,0.04842 0.15217,0.09683 0.23517,0.11758c0.05533,0.01383 0.13142,-0.01383 0.17983,-0.04842c0.06225,-0.04842 0.0415,-0.1245 0.00692,-0.17983c-0.07609,-0.1245 -0.15217,-0.24901 -0.24208,-0.35275c-0.28359,-0.32509 -0.58793,-0.62943 -0.86459,-0.96143c-2.4347,-2.95346 -3.64513,-6.35651 -3.7558,-10.16765c-0.00692,-0.2075 0.00692,-0.42192 0.0415,-0.62943c0.13142,-0.74701 0.73318,-1.16202 1.26577,-1.23118c0.9061,-0.11758 1.79836,0.56026 1.92286,1.48019c0.02767,0.2075 0.02767,0.42192 0.03458,0.62943c0.02075,0.7401 0.06225,1.48019 0.15217,2.22029c0.14525,1.12052 0.38734,2.22029 0.74701,3.29238c0.7401,2.19262 1.95053,4.0809 3.62439,5.67867c0.24208,0.22825 0.49109,0.44267 0.78851,0.60867c0.29742,0.166 0.60867,0.28359 0.9476,0.26975c0.35241,-0.01245 0.70489,0.02628 1.05211,0.06502c0.03438,0.00346 0.06869,0.00761 0.10299,0.01106c0.21442,0.02075 0.41501,0.00692 0.62943,-0.04842c-0.02767,-0.22825 -0.14525,-0.39426 -0.29742,-0.53951c-0.46342,-0.45651 -0.89918,-0.9476 -1.31419,-1.45252c-1.13435,-1.4041 -2.03353,-2.94654 -2.74596,-4.59965c-0.68476,-1.60469 -1.22427,-3.25088 -1.49402,-4.97316c-0.15909,-1.00293 0.45651,-1.94361 1.43869,-2.19953c0.99602,-0.26284 1.98511,0.31817 2.04044,1.47328c0.02075,0.47726 0.083,0.9476 0.11758,1.42486c0.08992,1.30727 0.31817,2.58687 0.67785,3.84573c0.33201,1.16202 0.76776,2.28254 1.36952,3.33389c0.67785,1.18277 1.56319,2.19262 2.56612,3.11255c0.67092,0.6156 1.41102,1.08593 2.31712,1.29343c0.62943,0.14525 1.03751,0.64326 0.9476,1.39027c-0.03458,0.28359 -0.0415,0.57409 -0.0415,0.86459c-0.02075,1.92286 -0.0415,3.85264 -0.06225,5.7755c0,0.1245 0,0.24208 -0.00692,0.36659c-0.02075,0.22134 -0.1245,0.29742 -0.33201,0.24901c-0.63634,-0.13834 -1.27269,-0.28359 -1.90903,-0.43575c-0.36659,-0.08992 -0.71934,-0.22825 -1.05135,-0.40117c-0.31817,-0.166 -0.60176,-0.36659 -0.84385,-0.63634c-0.19367,-0.21442 -0.30434,-0.45651 -0.28359,-0.75393c0.02075,-0.26284 0.02075,-0.53259 0.03458,-0.79543c0.00277,-0.05602 0.0056,-0.11205 0.00844,-0.16808c0.0323,-0.64187 0.06433,-1.27822 0.02615,-1.92079c-0.02075,-0.34584 -0.0415,-0.38042 -0.37351,-0.498c-0.18676,-0.06916 -0.37351,-0.13142 -0.56026,-0.19367c-1.49402,-0.49109 -2.97421,-1.00985 -4.35065,-1.78452c-0.0415,-0.02075 -0.083,-0.0415 -0.1245,-0.05533c-0.01383,-0.00484 -0.02767,-0.00277 -0.0415,-0.00138c-0.00692,0.00069 -0.01383,0.00138 -0.02075,0.00138c-0.10375,0.33201 -0.10375,0.33201 -0.42884,0.47726c0.09683,0.05533 0.17983,0.10375 0.26975,0.14525c0.25592,0.13142 0.51184,0.26284 0.76776,0.40117c0.09683,0.05533 0.18676,0.11758 0.26975,0.18676c0.11067,0.09683 0.11067,0.20059 0.01383,0.32509c-0.10375,0.13142 -0.22825,0.22825 -0.39426,0.28359c-0.60867,0.20059 -1.21735,0.40809 -1.82603,0.6156c-0.80234,0.27667 -1.61161,0.56026 -2.37937,0.92684c-0.94068,0.44959 -1.78452,1.02368 -2.48312,1.79836c-0.19367,0.21442 -0.37351,0.44267 -0.51184,0.69168c-0.40809,0.71934 -0.44959,1.46635 -0.14525,2.23412c0.10375,0.26975 0.25592,0.51876 0.42192,0.74701c0.30434,0.42884 0.67785,0.78851 1.07902,1.12052c0.42192,0.34584 0.86459,0.65018 1.32802,0.93377c1.00293,0.6156 2.06811,1.10669 3.16788,1.50786c2.92579,1.05827 5.94151,1.71536 9.02639,2.10962c0.96835,0.1245 1.9367,0.2075 2.90505,0.2905c1.18277,0.10375 2.36554,0.15909 3.5483,0.17983c2.63529,0.04842 5.26366,-0.04842 7.88512,-0.38734c1.27269,-0.166 2.53846,-0.35275 3.79731,-0.62251c1.37644,-0.2905 2.72521,-0.66401 4.03939,-1.18277c0.86459,-0.33892 1.70844,-0.71934 2.49695,-1.22427c0.52567,-0.33201 1.01677,-0.70551 1.45252,-1.14818c0.28359,-0.28359 0.52567,-0.60176 0.69859,-0.96143c0.35967,-0.76776 0.36659,-1.54244 -0.03458,-2.29637c-0.13834,-0.24901 -0.30434,-0.49109 -0.47726,-0.71934c-0.31817,-0.41501 -0.70551,-0.76085 -1.1136,-1.08593c-0.44267,-0.35275 -0.91301,-0.65709 -1.4041,-0.9476c-0.2075,-0.1245 -0.36659,-0.28359 -0.47726,-0.49109c0.21442,-0.22825 0.30434,-0.2905 0.58101,-0.35967c0.60176,-0.15909 1.1966,-0.31126 1.79836,-0.47034c2.70446,-0.69168 5.2775,-1.70153 7.71912,-3.0503c1.56319,-0.86459 3.02955,-1.86061 4.3714,-3.0503c2.08195,-1.84678 3.70739,-4.03248 4.89016,-6.55018c0.83001,-1.77761 1.3211,-3.65897 1.66694,-5.58183c0.01383,-0.06225 0.01383,-0.13142 0.00692,-0.20059c-0.00692,-0.09683 -0.07609,-0.166 -0.17292,-0.166c-0.15217,0 -0.31126,0.01383 -0.46342,0.03458c-0.8231,0.11758 -1.63927,0.23517 -2.46237,0.35275c-0.27667,0.03458 -0.55334,0.05533 -0.8231,0.083c-0.38042,0.03458 -0.66401,-0.11758 -0.87151,-0.42884c-0.11067,-0.166 -0.21442,-0.33201 -0.31126,-0.50493c-0.17292,-0.31817 -0.26284,-0.65709 -0.25592,-1.01677v-0.42884c0.01383,-4.7449 0.02767,-9.49672 0.04842,-14.24163c0.00692,-1.73611 0.01383,-3.47222 0.02075,-5.21524c0.01383,-3.99789 0.03458,-7.98887 0.04842,-11.98676c0.00692,-1.90211 0.01383,-3.80422 0.02075,-5.71325c0.00692,-4.26073 0.01383,-8.52146 0.01383,-12.78219c0,-3.3408 0.00692,-6.6816 0.00692,-10.02932c0,-1.56319 0.00692,-3.11946 0.01383,-4.68265c0,-0.26284 0.02075,-0.53259 0.04842,-0.79543c0.02767,-0.29742 0.18676,-0.45651 0.47726,-0.51184c0.13142,-0.02767 0.26284,-0.03458 0.39426,-0.05533c0.44959,-0.06916 0.89918,-0.13142 1.34185,-0.20059c0.25592,-0.0415 0.49109,-0.1245 0.71243,-0.25592c0.31126,-0.17983 0.63634,-0.31126 0.9891,-0.36659c0.34584,-0.05533 0.69859,-0.09683 1.05135,-0.11067c0.88535,-0.0415 1.77069,-0.06225 2.65604,-0.08992c0.31817,-0.01383 0.64326,-0.02767 0.96143,-0.04842c0.0415,0 0.08992,0 0.083,-0.083c-0.11758,-0.06916 -0.26284,-0.08992 -0.40117,-0.1245c-0.39426,-0.083 -0.78851,-0.08992 -1.18969,-0.11067c-0.14525,-0.00692 -0.2905,-0.00692 -0.42884,-0.01383c-0.31126,-0.02075 -0.40117,-0.10375 -0.44267,-0.42192c-0.02767,-0.20059 -0.03458,-0.39426 -0.0415,-0.59484c-0.02075,-0.87843 -0.10375,-1.74303 -0.26975,-2.60762c-0.166,-0.83693 -0.37351,-1.66002 -0.72626,-2.44162c-0.32509,-0.71243 -0.65709,-1.42486 -1.00985,-2.13037c-0.50493,-1.01677 -1.14127,-1.94361 -1.92286,-2.77362c-0.40117,-0.42884 -0.81618,-0.84385 -1.21043,-1.2796c-0.83001,-0.91301 -1.78452,-1.68078 -2.80129,-2.37937c-2.55921,-1.74994 -5.33975,-3.02955 -8.31396,-3.90798c-1.59086,-0.47034 -3.20938,-0.84385 -4.81407,-1.25194c-0.74701,-0.18676 -1.50786,-0.22825 -2.2687,-0.06916c-0.56026,0.11758 -1.12743,0.21442 -1.69461,0.32509c-1.24502,0.24901 -2.47621,0.56026 -3.67972,0.99602c-1.21043,0.44267 -2.36554,0.9891 -3.43072,1.72227c-1.05135,0.72626 -1.9367,1.61161 -2.62146,2.69062c-0.81618,1.28652 -1.25194,2.70446 -1.43177,4.2054c-0.13142,1.09285 -0.15217,2.1857 -0.09683,3.27855c0.02075,0.40809 0.02767,0.81618 0.02767,1.23118c-0.00692,0.51876 -0.22825,0.93377 -0.65709,1.2381c-0.70551,0.48417 -1.45944,0.58793 -2.27562,0.33201c-0.44267,-0.13834 -0.65018,-0.31817 -0.60176,-0.87151c0.09683,-1.01677 0.19367,-2.02661 0.34584,-3.03646c0.166,-1.12743 0.38042,-2.24795 0.69168,-3.34772c0.34584,-1.24502 0.86459,-2.41395 1.60469,-3.47914c1.01677,-1.45944 2.34478,-2.55229 3.91489,-3.35463c1.68769,-0.86459 3.47222,-1.41794 5.33975,-1.73611c1.47328,-0.24901 2.95346,-0.42884 4.43365,-0.60867c0.33892,-0.0415 0.67785,-0.08992 1.0721,-0.14525c-0.10375,-0.04842 -0.15217,-0.08992 -0.21442,-0.09683c-0.09683,-0.01383 -0.20059,-0.01383 -0.29742,-0.01383c-1.60469,0.00692 -3.20938,-0.03458 -4.81407,-0.11758c-0.51876,-0.02767 -1.03751,-0.06916 -1.55627,-0.07609c-1.20352,-0.01383 -2.41395,-0.00692 -3.61747,0c-0.166,0 -0.33201,0.03458 -0.49109,0.07609c-1.17585,0.31817 -2.32403,0.71934 -3.4238,1.25194c-1.53552,0.74701 -2.92579,1.70153 -4.10164,2.93963c-1.8537,1.95053 -2.82204,4.30223 -3.11946,6.95827c-0.10375,0.93377 -0.13142,1.87445 -0.1245,2.81512v0.79543c0.01383,0.81618 -0.60867,1.67386 -1.66694,1.72227c-0.51184,0.02767 -0.79543,-0.19367 -0.97526,-0.62943c-0.05533,-0.13142 -0.08992,-0.27667 -0.08992,-0.41501c-0.00692,-0.25592 0.00692,-0.50493 0.02767,-0.76085c0.02075,-0.25592 0.06916,-0.50493 0.09683,-0.75393c0.11758,-1.00985 0.26975,-2.0197 0.47726,-3.01571c0.28359,-1.33494 0.67785,-2.63529 1.25194,-3.87339c0.81618,-1.78452 1.96436,-3.2993 3.5068,-4.52357c1.17585,-0.92684 2.47621,-1.62544 3.88723,-2.12345c0.67785,-0.24208 1.36261,-0.44267 2.04737,-0.67092c0.14525,-0.04842 0.28359,-0.09683 0.50493,-0.17292c-0.05049,0 -0.08785,-0.00115 -0.1162,-0.00204c-0.04219,-0.0013 -0.0664,-0.00206 -0.0913,0.00204c-0.43575,0.06916 -0.87151,0.13834 -1.30727,0.21442c-0.63634,0.11067 -1.26577,0.17983 -1.91595,0.166c-0.3825,-0.00922 -0.7643,-0.00615 -1.14867,-0.00309c-0.19291,0.00153 -0.38637,0.00309 -0.58052,0.00309c-0.26975,0 -0.53259,0.03458 -0.78159,0.1245c-0.64326,0.24208 -1.28652,0.47726 -1.91595,0.7401c-1.24502,0.52567 -2.35862,1.26577 -3.30622,2.23412c-1.49402,1.5286 -2.36554,3.36847 -2.75287,5.45733c-0.18676,1.02368 -0.2905,2.0612 -0.38734,3.0918c-0.10375,1.04444 -0.18676,2.09578 -0.27667,3.14021c-0.02767,0.29742 -0.10375,0.58793 -0.25592,0.85076c-0.31817,0.53951 -1.00985,0.85076 -1.62544,0.71934c-0.2075,-0.0415 -0.38042,-0.13142 -0.45651,-0.33892c-0.15217,-0.42884 -0.29742,-0.85768 -0.29742,-1.3211c0.00692,-0.96143 0.05533,-1.92286 0.17292,-2.87738c0.1245,-1.00293 0.31126,-1.98511 0.60176,-2.95346c0.95451,-3.18863 2.85663,-5.63025 5.74784,-7.29719c1.34877,-0.78159 2.78746,-1.33494 4.29531,-1.71536c0.19367,-0.04842 0.38734,-0.10375 0.57409,-0.15909c0.02767,-0.00692 0.04842,-0.04842 0.11067,-0.11758c-0.13834,0.01383 -0.22825,0.01383 -0.31126,0.02767c-0.26975,0.04842 -0.54642,0.09683 -0.81618,0.15217c-0.81618,0.15217 -1.63927,0.26975 -2.46928,0.23517c-0.17064,-0.00517 -0.34515,0.00125 -0.52062,0.00772c-0.05927,0.00218 -0.11862,0.00437 -0.17797,0.00612c-0.32509,0.01383 -0.64326,0.00692 -0.95451,-0.06225c-0.07609,-0.01383 -0.15217,-0.02075 -0.22825,-0.02767c-0.38734,-0.02767 -0.74701,0.06916 -1.09285,0.22825c-0.33892,0.15909 -0.67785,0.33201 -1.00293,0.51184c-2.73904,1.47328 -4.72415,3.64513 -5.94151,6.50868c-0.79543,1.86061 -1.18277,3.81806 -1.31419,5.83084c-0.03458,0.50493 -0.0415,1.01677 -0.06916,1.5286c-0.01383,0.20059 -0.02767,0.40117 -0.07609,0.58793c-0.1245,0.49109 -0.42884,0.84385 -0.89918,1.0306c-0.33201,0.13142 -0.66401,0.14525 -1.00293,-0.02075l-0.00325,-0.01688c-0.07498,-0.38844 -0.14871,-0.77046 -0.13509,-1.16589c0.03458,-0.79543 0.07609,-1.59086 0.17292,-2.37937c0.15909,-1.3211 0.44267,-2.61454 0.87843,-3.87339c1.18969,-3.4238 3.38922,-5.96917 6.61243,-7.62228c0.97526,-0.498 1.99895,-0.88535 3.0503,-1.21043c0.14525,-0.04842 0.2905,-0.10375 0.42884,-0.166c0.02767,-0.01383 0.0415,-0.05533 0.083,-0.11758c-0.15909,-0.00692 -0.27667,0.00692 -0.39426,0.0415c-0.17983,0.04842 -0.36659,0.08992 -0.54642,0.13142c-0.56026,0.14525 -1.12052,0.23517 -1.70153,0.25592c-0.60867,0.02075 -1.21735,0.06225 -1.81911,0.11067c-0.53259,0.04842 -1.05135,0.15909 -1.54244,0.35967c-0.91993,0.38042 -1.81219,0.8231 -2.65604,1.35568c-1.14127,0.71934 -2.1442,1.59777 -2.98113,2.66296c-1.16893,1.49402 -1.88136,3.19555 -2.26178,5.04232c-0.24901,1.1966 -0.35275,2.40703 -0.46342,3.61747c-0.0415,0.44959 -0.06225,0.9061 -0.13142,1.35568c-0.10375,0.64326 -0.45651,1.12052 -1.07902,1.36261c-0.22134,0.083 -0.44959,0.1245 -0.68476,0.10375c-0.27667,-0.02767 -0.42192,-0.15217 -0.48417,-0.41501c-0.0415,-0.17292 -0.06916,-0.34584 -0.10375,-0.51876c-0.05533,-0.27667 -0.04842,-0.54642 0,-0.8231c0.1245,-0.67092 0.23517,-1.34877 0.35967,-2.02661c0.17983,-0.95451 0.38042,-1.90903 0.66401,-2.84279c0.8231,-2.67679 2.3102,-4.91091 4.4959,-6.66085c1.34877,-1.07902 2.85663,-1.83986 4.4959,-2.37245c0.40117,-0.13142 0.80926,-0.23517 1.21043,-0.35275c0.00685,-0.00196 0.01439,-0.00364 0.02227,-0.00539c0.04786,-0.01065 0.10818,-0.02409 0.10223,-0.11911c-0.09683,0.01383 -0.18676,0.01383 -0.26975,0.03458c-0.56026,0.13142 -1.12052,0.26284 -1.67386,0.40809c-1.21043,0.31126 -2.41395,0.64326 -3.62439,0.95451c-0.65018,0.166 -1.25885,0.40809 -1.81219,0.78851c-0.38042,0.26284 -0.76776,0.52567 -1.14127,0.80234c-1.88828,1.39719 -3.34772,3.14713 -4.37831,5.24983c-0.47726,0.96835 -0.84385,1.97128 -1.14127,3.00188c-0.31126,1.0721 -0.52567,2.17187 -0.66401,3.27855c-0.04842,0.39426 -0.19367,0.74701 -0.47726,1.0306c-0.26284,0.25592 -0.58101,0.40809 -0.95451,0.40117c-0.26284,-0.00692 -0.40809,-0.11758 -0.47726,-0.37351c-0.13834,-0.51876 -0.19367,-1.04444 -0.13834,-1.57702c0.13142,-1.25885 0.47034,-2.45545 1.01677,-3.58981c0.58793,-1.22427 1.34185,-2.33787 2.20645,-3.3823c1.21043,-1.47328 2.62837,-2.71829 4.17773,-3.81806c0.6156,-0.43575 1.24502,-0.84385 1.90211,-1.20352c0.33201,-0.17983 0.65018,-0.38042 0.92684,-0.64326c0.11067,-0.10375 0.22825,-0.2075 0.29742,-0.34584c-0.08362,-0.0478 -0.14145,-0.01303 -0.19581,0.01962c-0.00857,0.00515 -0.01702,0.01025 -0.02552,0.01497c-0.42192,0.21442 -0.84385,0.43575 -1.26577,0.65709c-0.79543,0.41501 -1.57702,0.84385 -2.33095,1.33494l-1.82603,1.20352c-2.38628,1.57702 -4.35756,3.57597 -5.92767,5.96226c-0.33201,0.498 -0.65709,0.99602 -0.9891,1.49402c-0.30434,0.44959 -0.57409,0.91993 -0.80234,1.41102c-1.12052,2.41395 -1.88828,4.93165 -2.27562,7.56695c-0.02767,0.19367 -0.04842,0.38734 -0.07609,0.60867c0.1245,0.01383 0.22134,0.02767 0.31817,0.03458c0.44959,0.02767 0.9061,0.04842 1.35568,0.083c0.15217,0.01383 0.31126,0.03458 0.45651,0.06916c0.40809,0.09683 0.71934,0.33201 0.9061,0.71934c0.02075,0.04842 0.04842,0.10375 0.06916,0.15217c0.09683,0.20059 0.25592,0.29742 0.47034,0.31126c0.07609,0.00692 0.15217,0.00692 0.23517,0.00692h6.60552c1.14818,0 2.30329,0.00692 3.45147,0.01383c0.13142,0 0.26284,0.01383 0.39426,0.02767c0.166,0.02075 0.24901,0.1245 0.26975,0.2905c0.00692,0.06916 0.01383,0.13142 0.01383,0.20059c0.02075,0.498 0.03458,0.99602 0.05533,1.49402v0.00021c0.00692,0.24202 0.01383,0.48404 0.00692,0.73297c-0.00692,0.24208 -0.08992,0.33892 -0.33892,0.36659c-0.22134,0.02767 -0.44267,0.0415 -0.66401,0.04842c-2.91196,0.02767 -5.817,0.04842 -8.72896,0.07609c-0.42192,0.00692 -0.84385,0.00692 -1.25885,0.00692c-0.26975,0 -0.47034,0.11067 -0.60867,0.33892c-0.0415,0.06916 -0.083,0.13142 -0.1245,0.19367c-0.22825,0.31817 -0.52567,0.498 -0.91993,0.51876c-0.07609,0.00692 -0.15217,0.00692 -0.23517,0.01383c-0.48417,0.02075 -0.97526,0.0415 -1.45944,0.06225c-0.27667,0.01383 -0.54642,0.05533 -0.80926,0.10375c-0.01383,0.0415 -0.03458,0.07609 -0.03458,0.10375c0,0.57409 -0.00692,1.14818 -0.00692,1.72919c0,0.05533 0.01383,0.11067 0.02075,0.17292c0.06225,0.01383 0.11067,0.02767 0.166,0.02767c0.27667,0.02075 0.55334,0.03458 0.83001,0.06225c0.69859,0.05533 1.29343,0.2905 1.60469,0.98218c0.06916,0.15909 0.2075,0.22134 0.36659,0.24901c0.11758,0.02075 0.24208,0.02075 0.36659,0.02767c1.08593,0.02767 2.16495,0.06225 3.25088,0.08992l4.04631,0.10375c1.0306,0.02767 2.05428,0.04842 3.08488,0.07609c0.11067,0 0.22134,0.02075 0.32509,0.0415c0.18676,0.0415 0.28359,0.15909 0.31126,0.34584c0.02075,0.11067 0.02767,0.22134 0.03458,0.33201c0.00692,0.69859 0.02075,1.39719 0.02075,2.08886c0,0.08992 -0.02075,0.17292 -0.02767,0.26284c-0.02767,0.21442 -0.166,0.33201 -0.37351,0.35967c-0.11758,0.01383 -0.24208,0.02075 -0.36659,0.01383l-2.05428,-0.083c-0.78159,-0.03458 -1.57011,-0.06916 -2.3517,-0.09683c-0.81618,-0.03458 -1.63927,-0.05533 -2.45545,-0.08992c-0.7401,-0.02767 -1.48019,-0.06916 -2.22029,-0.09683c-0.47726,-0.02075 -0.9476,-0.03458 -1.42486,-0.05533c-0.27667,-0.01383 -0.498,0.07609 -0.64326,0.32509c-0.02767,0.04842 -0.05533,0.09683 -0.08992,0.13834c-0.22134,0.32509 -0.51876,0.53951 -0.91301,0.60176c-0.24208,0.03458 -0.48417,0.06225 -0.71934,0.11067c-0.26975,0.04842 -0.54642,0.04842 -0.80234,0.13834c-0.01383,0.04842 -0.02767,0.083 -0.02767,0.11067v1.69461c0,0.04842 0.02767,0.10375 0.0415,0.15217c0.17292,0.02767 0.33892,0.05533 0.50493,0.08992c0.28359,0.06225 0.56718,0.11067 0.83693,0.20059c0.38734,0.1245 0.67785,0.38042 0.81618,0.76776c0.07609,0.22134 0.21442,0.32509 0.44267,0.31126c0.0415,0 0.08992,0.00692 0.13142,0.00692c0.9061,0.02767 1.81219,0.06225 2.71829,0.083c2.17878,0.0415 4.35756,0.06916 6.53635,0.10375c0.38734,0.00692 0.77468,0.02075 1.16202,0.02767c0.09683,0 0.20059,0.00692 0.29742,0.02075c0.25592,0.0415 0.38734,0.17983 0.42192,0.43575c0.00692,0.06225 0.01383,0.13142 0.01383,0.20059c0.00692,0.71934 0.00692,1.43869 0.01383,2.15803c0,0.11067 0,0.22134 -0.01383,0.33201c-0.02767,0.31126 -0.15217,0.42884 -0.46342,0.44267c-0.14525,0.00692 -0.2905,0 -0.42884,-0.00692c-0.9061,-0.0415 -1.81219,-0.083 -2.71829,-0.13142c-0.51876,-0.02767 -1.03751,-0.04842 -1.55627,-0.07609c-1.12743,-0.05533 -2.25487,-0.11067 -3.3823,-0.17292c-0.72626,-0.03458 -1.45944,-0.07609 -2.1857,-0.11758c-0.166,-0.00692 -0.33201,-0.02075 -0.498,-0.02075c-0.26975,0 -0.47034,0.11758 -0.58793,0.35967c-0.03458,0.06916 -0.06225,0.13834 -0.10375,0.2075c-0.2075,0.37351 -0.52567,0.59484 -0.95451,0.63634c-0.17292,0.01383 -0.35275,0.00692 -0.53259,0.01383c-0.04178,0.0018 -0.08446,0.00125 -0.12761,0.00069c-0.12132,-0.00166 -0.24617,-0.00332 -0.36348,0.04772c-0.00692,0.04842 -0.02075,0.08992 -0.02075,0.13834v1.69461c0,0.04842 0.02075,0.10375 0.03458,0.15909c0.2075,0.02767 0.40809,0.0415 0.60176,0.06916c0.11758,0.01383 0.24901,0.02075 0.35967,0.06916c0.47034,0.17983 0.87151,0.43575 0.97526,0.98218c0.0415,0.21442 0.11758,0.26284 0.34584,0.2905c0.05533,0.00692 0.11067,0.00692 0.166,0.01383c0.67092,0.03458 1.34877,0.06916 2.0197,0.09683c1.36261,0.05533 2.71829,0.10375 4.0809,0.15909c0.64326,0.02767 1.2796,0.0415 1.92286,0.06916c0.77468,0.02767 1.54936,0.06225 2.32403,0.08992c0.09683,0.00692 0.20059,0.00692 0.29742,0.02767c0.27667,0.04842 0.42884,0.20059 0.48417,0.47726c0.01383,0.083 0.02075,0.17292 0.02075,0.26284v2.19262c0,0.09683 -0.00692,0.20059 -0.02767,0.29742c-0.0415,0.21442 -0.17292,0.35967 -0.39426,0.39426c-0.11067,0.01383 -0.22134,0.02075 -0.33201,0.02075c-0.31126,-0.01383 -0.6156,-0.02767 -0.92684,-0.04842c-1.22427,-0.07609 -2.44854,-0.14525 -3.67972,-0.22825c-1.20352,-0.083 -2.40703,-0.17292 -3.61055,-0.25592c-0.47726,-0.03458 -0.9476,-0.06916 -1.42486,-0.10375c-0.29742,-0.02075 -0.59484,-0.03458 -0.89226,-0.05533c-0.18676,-0.01383 -0.31817,0.04842 -0.40117,0.22134c-0.04842,0.09683 -0.09683,0.20059 -0.15909,0.2905c-0.19367,0.2905 -0.44959,0.47726 -0.80926,0.51876c-0.17292,0.02075 -0.35275,0.0415 -0.52567,0.06916c-0.15217,0.02075 -0.30434,0.02767 -0.46342,0.083c-0.00692,0.08992 -0.01383,0.17983 -0.01383,0.26284c-0.00692,0.45651 -0.00692,0.9061 -0.00692,1.36261c0,0.05533 0,0.11067 0.00692,0.166c0.02075,0.14525 0.09683,0.22134 0.24208,0.23517c0.09683,0.00692 0.20059,0 0.29742,0.00692c0.50493,0.02075 0.88535,0.24208 1.14818,0.67092c0.04842,0.07609 0.08992,0.15217 0.1245,0.23517c0.07609,0.20059 0.2075,0.2905 0.42884,0.29742c0.62943,0.02767 1.25885,0.07609 1.88828,0.11067c1.27269,0.06916 2.53846,0.13142 3.81114,0.19367c1.57011,0.07609 3.14021,0.14525 4.71032,0.22134c0.14525,0.00692 0.28359,0.02767 0.42884,0.05533c0.19367,0.03458 0.31126,0.166 0.35275,0.35275c0.02767,0.10375 0.02767,0.22134 0.02767,0.33201v2.25487c0,0.09683 0,0.20059 -0.02075,0.29742c-0.0415,0.20059 -0.15909,0.33892 -0.37351,0.36659c-0.11067,0.01383 -0.22134,0.02767 -0.33201,0.02075c-0.86459,-0.03458 -1.72227,-0.07609 -2.58687,-0.11067c-0.46342,-0.02075 -0.92684,-0.05533 -1.39027,-0.083c-0.96143,-0.05533 -1.92286,-0.11067 -2.88429,-0.17292c-0.59484,-0.03458 -1.18969,-0.06916 -1.79145,-0.10375c-0.6156,-0.03458 -1.2381,-0.06225 -1.8537,-0.10375c-0.23517,-0.01383 -0.39426,0.05533 -0.51184,0.27667c-0.19367,0.36659 -0.51184,0.57409 -0.9061,0.66401c-0.13834,0.03458 -0.28359,0.06225 -0.42192,0.06225c-0.31817,0.00692 -0.38042,0.11067 -0.38042,0.40809c0.00463,0.27155 0.00311,0.54311 0.00152,0.81666c-0.00076,0.13758 -0.00152,0.2757 -0.00152,0.41452c0,0.06916 0,0.13142 0.01383,0.20059c0.01383,0.09683 0.06916,0.166 0.166,0.18676c0.07609,0.02075 0.15217,0.02767 0.22825,0.0415c0.15217,0.02767 0.30434,0.04842 0.45651,0.08992c0.43575,0.1245 0.78159,0.36659 0.95451,0.80234c0.07609,0.20059 0.21442,0.26975 0.40117,0.2905c0.08992,0.00692 0.17983,0.01383 0.26284,0.01383l1.66002,0.083c1.35568,0.07609 2.71829,0.15909 4.07397,0.23517c1.30035,0.07609 2.60762,0.14525 3.90798,0.22134c0.25592,0.01383 0.50493,0.03458 0.76085,0.05533c0.06225,0.00692 0.13142,0.02075 0.19367,0.03458c0.2075,0.04842 0.31817,0.18676 0.35967,0.39426c0.02075,0.09683 0.02075,0.20059 0.02075,0.29742v2.2272c0,0.09683 0,0.20059 -0.02075,0.29742c-0.04842,0.24901 -0.19367,0.38734 -0.44959,0.40809c-0.11067,0.00692 -0.22134,0.00692 -0.33201,0c-1.08593,-0.05533 -2.16495,-0.10375 -3.25088,-0.15909c-0.9476,-0.04842 -1.90211,-0.11067 -2.84971,-0.166c-0.97526,-0.05533 -1.94361,-0.10375 -2.91888,-0.15909c-0.44267,-0.02767 -0.88535,-0.04842 -1.3211,-0.08992c-0.29742,-0.03458 -0.51184,0.03458 -0.63634,0.33201c-0.11758,0.27667 -0.35275,0.44959 -0.65018,0.51876c-0.25592,0.06225 -0.51876,0.1245 -0.77468,0.17983c-0.17292,0.0415 -0.22825,0.08992 -0.24208,0.26284c-0.00692,0.03458 -0.00692,0.06916 0,0.09683c0,0.44267 0.00692,0.88535 0.00692,1.32802c0,0.0415 0,0.08992 0.00692,0.13142c0.01383,0.13142 0.05533,0.17983 0.18676,0.19367c0.07609,0.00692 0.15217,0 0.23517,0.00692c0.18676,0.01383 0.37351,0.02075 0.56026,0.0415c0.53951,0.06225 0.95451,0.32509 1.20352,0.8231c0.02075,0.0415 0.03458,0.083 0.06225,0.11758c0.05533,0.10375 0.14525,0.166 0.25592,0.19367c0.083,0.02075 0.17292,0.0415 0.26284,0.0415c0.80926,0.04842 1.61161,0.10375 2.42087,0.15217c0.53259,0.03458 1.05827,0.05533 1.59086,0.08992c0.96143,0.05533 1.92286,0.11758 2.88429,0.17292c0.98218,0.05533 1.96436,0.10375 2.95346,0.15909c0.24208,0.01383 0.48417,0.02767 0.72626,0.05533c0.37351,0.0415 0.53259,0.20059 0.57409,0.56718c0,0.02075 0.00692,0.0415 0.00692,0.06916c0.06916,0.79543 0.06225,1.59086 -0.00692,2.38628c-0.00692,0.09683 -0.03458,0.19367 -0.05533,0.2905c-0.04842,0.17983 -0.17983,0.27667 -0.35275,0.31817c-0.083,0.02075 -0.17292,0.02075 -0.26284,0.02075c-0.26284,-0.00692 -0.53259,-0.01383 -0.79543,-0.02767l-3.11255,-0.166c-1.0306,-0.05533 -2.05428,-0.10375 -3.08488,-0.15909c-1.16202,-0.06225 -2.31712,-0.11758 -3.47914,-0.20059c-0.31817,-0.02075 -0.55334,0.04842 -0.72626,0.33201c-0.17292,0.26975 -0.42884,0.44267 -0.75393,0.50493c-0.2075,0.0415 -0.41501,0.07609 -0.62251,0.11067c-0.15217,0.02767 -0.31126,0.03458 -0.46342,0.06225c-0.13834,0.02075 -0.18676,0.083 -0.2075,0.22134c-0.00692,0.03458 -0.00692,0.06916 -0.00692,0.09683v1.36261c0,0.25592 0.06225,0.31126 0.31126,0.31817c0.13142,0 0.26284,0 0.40117,-0.00692c0.31126,-0.00692 0.62251,0.01383 0.92684,0.06916c0.51876,0.09683 0.93377,0.33892 1.14127,0.85076c0.083,0.2075 0.23517,0.26975 0.43575,0.28359c0.97526,0.05533 1.94361,0.1245 2.91196,0.17983c0.59484,0.03458 1.1966,0.05533 1.79145,0.08992c1.21735,0.06225 2.4347,0.1245 3.64513,0.18676c0.71934,0.0415 1.43869,0.08992 2.15111,0.13834c0.11067,0.00692 0.22134,0.02075 0.33201,0.0415c0.19367,0.03458 0.31126,0.15909 0.35967,0.34584c0.02075,0.083 0.02767,0.17292 0.02767,0.26284v2.35862c0,0.05533 0,0.11067 -0.00692,0.166c-0.02767,0.30434 -0.166,0.46342 -0.47726,0.50493c-0.13135,0.02075 -0.2627,0.01383 -0.39426,0.00692c-0.75393,-0.0415 -1.50094,-0.08992 -2.25487,-0.13142c-0.42192,-0.02767 -0.83693,-0.04842 -1.25885,-0.07609c-0.97526,-0.05533 -1.94361,-0.11758 -2.91888,-0.17292c-0.65018,-0.03458 -1.30035,-0.07609 -1.95744,-0.11067c-0.65018,-0.03458 -1.30727,-0.06225 -1.95744,-0.10375c-0.23517,-0.01383 -0.41501,0.04842 -0.51876,0.26975c-0.01383,0.02767 -0.03458,0.05533 -0.04842,0.083c-0.21442,0.33892 -0.51876,0.53951 -0.91301,0.59484c-0.18676,0.02767 -0.37351,0.0415 -0.56026,0.05533c-0.2075,0.02075 -0.40809,0.0415 -0.6156,0.10375c0.01383,0.09683 0.02075,0.17292 0.0415,0.24208c0.07609,0.35967 0.166,0.71243 0.23517,1.06518c0.34584,1.66002 0.78159,3.29238 1.4041,4.8694c0.30434,0.77468 0.60176,1.54936 0.94068,2.30329c0.47034,1.04444 1.12743,1.9782 1.78452,2.91196c0.01383,0.01383 0.03458,0.02075 0.05533,0.03458c0.00692,-0.00692 0.02075,-0.02075 0.02075,-0.02767c-0.01383,-0.05533 -0.02767,-0.11067 -0.0415,-0.15909c-0.31126,-0.87843 -0.50493,-1.78452 -0.62251,-2.71137c-0.0415,-0.33201 -0.05533,-0.66401 -0.02075,-0.99602c0.0415,-0.40117 0.2075,-0.7401 0.49109,-1.02368c0.27667,-0.26975 0.60176,-0.40117 0.9891,-0.38734c0.41501,0.01383 0.68476,0.2075 0.84385,0.58101c0.08992,0.22825 0.13142,0.46342 0.14525,0.71243c0.02767,0.55334 0.06225,1.10669 0.11758,1.65311c0.10375,1.01677 0.35275,2.00586 0.70551,2.96038c0.48417,1.3211 1.21735,2.50387 2.05428,3.62439c0.07609,0.10375 0.17292,0.2075 0.26284,0.30434c0.35967,0.38734 0.76776,0.69859 1.25885,0.89226c0.06225,0.02767 0.11758,0.05533 0.17983,0.083c0.44959,0.22134 0.89226,0.43575 1.34185,0.65709c0,0.05533 0.04842,0.07609 0.11758,0.02767zM274.16654,139.65828c-0.02767,-0.04842 -0.06225,-0.08992 -0.10375,-0.15909c-0.11758,0 -0.24901,0 -0.38042,0.00692c-3.97714,0.01383 -7.94737,-0.01383 -11.9176,-0.09683c-0.498,-0.01383 -0.99602,-0.02767 -1.49402,-0.02767c-0.49109,-0.00692 -0.65018,0.15217 -0.67092,0.65018c-0.01383,0.35275 -0.03458,0.70551 -0.0415,1.05827v0.00041c-0.01383,0.44253 -0.02767,0.88507 -0.01383,1.3276c0.01383,0.35275 0.166,0.498 0.51184,0.53259c0.166,0.01383 0.33201,0.02075 0.498,0.02075c1.69461,0.01383 3.3823,0.02767 5.07691,0.04842c3.1748,0.0415 6.34959,0.083 9.52439,0.13142c2.63529,0.0415 5.26366,0.07609 7.89895,0.11758c1.80528,0.02075 3.60364,0.04842 5.40891,0.07609c0.2075,0 0.42192,0.01383 0.62943,0.02075c0.87843,0.0415 1.76378,0.083 2.64913,0.11758c0.52567,0.02075 1.05827,0.02767 1.59086,0.02767h2.12345c0.45651,0 0.69859,-0.20059 0.71934,-0.71243c0,-0.083 0.00692,-0.15909 0.00692,-0.23517c0.01383,-0.42884 0.03458,-0.86459 0.0415,-1.29343c0.00138,-0.0922 0.00415,-0.18482 0.00623,-0.27764c0.00623,-0.28352 0.01314,-0.56862 0.00761,-0.84979c-0.00692,-0.42884 -0.2075,-0.65018 -0.63634,-0.69859c-0.15217,-0.01383 -0.31126,-0.01383 -0.46342,-0.00692c-0.95451,0.02767 -1.90211,0.05533 -2.85663,0.083c-1.20352,0.03458 -2.41395,0.08992 -3.61747,0.10375c-2.34478,0.02767 -4.68957,0.04842 -7.03435,0.05533c-1.56181,0.00463 -3.12431,0.00304 -4.68611,0.00152h-0.00208h-0.00138c-0.78159,-0.00076 -1.56319,-0.00152 -2.34478,-0.00152h-0.33201c-0.03458,-0.00692 -0.06916,-0.01383 -0.09683,-0.02075zM301.28583,141.94186c0.00069,-0.15065 0.00138,-0.30102 0.00138,-0.45063c0.00692,-0.45651 0.00692,-0.9061 0.00692,-1.36952c0,-0.08992 0,-0.17983 -0.02075,-0.26284c-0.0415,-0.17292 -0.15217,-0.2905 -0.33892,-0.31126c-0.083,-0.01383 -0.17292,-0.02075 -0.26284,-0.02075h-1.95744c-0.11067,0 -0.22825,0.01383 -0.33201,0.03458c-0.17983,0.0415 -0.28359,0.166 -0.32509,0.33892c-0.01383,0.05533 -0.01383,0.11067 -0.01383,0.166c-0.02075,0.91993 -0.0415,1.83294 -0.06225,2.75287c-0.00692,0.07609 -0.00692,0.15217 0.00692,0.22825c0.02767,0.166 0.11758,0.28359 0.2905,0.31817c0.09683,0.02075 0.20059,0.02767 0.29742,0.02767c0.71243,0.00692 1.43177,0.00692 2.15111,0.00692c0.38734,0 0.56718,-0.11758 0.56026,-0.55334c-0.00484,-0.29998 -0.00277,-0.60308 -0.00138,-0.90506zM270.86725,151.4168c2.1027,0.00692 4.2054,0.02767 6.3081,0.0415c0,0.00692 0,0.01383 -0.01383,0.01383c3.0503,0.02767 6.10751,0.04842 9.1578,0.083c1.41794,0.01383 2.82896,0.06225 4.2469,0.10375c0.68476,0.02075 1.36952,0.06225 2.05428,0.09683c0.86252,0.04828 1.71813,0.02774 2.58065,0.00705l0.00623,-0.00014c0.11067,0 0.22134,-0.01383 0.33201,-0.03458c0.26975,-0.04842 0.42884,-0.22134 0.47034,-0.49109c0.01383,-0.11067 0.02075,-0.22134 0.02075,-0.33201c0.02075,-0.7401 0.03458,-1.48019 0.05533,-2.22029c0,-0.03203 0.00069,-0.06481 0.00138,-0.09787c0.00138,-0.06688 0.00346,-0.13481 -0.00138,-0.19955c-0.02075,-0.36659 -0.2075,-0.59484 -0.57409,-0.66401c-0.21442,-0.0415 -0.43575,-0.04842 -0.65709,-0.0415c-1.44561,0.0415 -2.89812,0.09683 -4.34373,0.13142c-0.35068,0.00747 -0.70205,0.01542 -1.05273,0.02338c-1.59501,0.03604 -3.19209,0.07221 -4.78502,0.06654c-2.69062,-0.00692 -5.37433,-0.05533 -8.06495,-0.08992c-2.88429,-0.0415 -5.7755,-0.083 -8.6598,-0.1245c-0.98218,-0.01383 -1.97128,-0.02075 -2.95346,-0.04842c-1.80528,-0.04842 -3.60364,-0.10375 -5.40891,-0.15909c-0.05049,0 -0.10168,-0.00076 -0.15321,-0.00152c-0.10389,-0.00152 -0.20861,-0.00311 -0.31022,0.00152c-0.09683,0 -0.19367,0.02075 -0.2905,0.0415c-0.20059,0.05533 -0.32509,0.18676 -0.36659,0.38734c-0.02767,0.13142 -0.0415,0.26284 -0.04842,0.39426c-0.02767,0.7401 -0.05533,1.48019 -0.07609,2.22029c0,0.02718 -0.00076,0.05506 -0.00152,0.08349c-0.00152,0.05838 -0.00311,0.1189 0.00152,0.17935c0.02075,0.33892 0.2075,0.55334 0.54642,0.60176c0.166,0.02767 0.33201,0.02767 0.498,0.02767c1.27476,0 2.55022,-0.00076 3.82601,-0.00152h0.0045h0.0045c2.54925,-0.00152 5.0996,-0.00311 7.64684,0.00152zM297.70432,148.31116c-0.01383,0.46342 -0.03458,0.92684 -0.04842,1.39027h-0.00692v1.29343c0,0.09683 0,0.20059 0.01383,0.29742c0.02075,0.15217 0.11067,0.26975 0.26975,0.29742c0.10375,0.02075 0.21442,0.03458 0.32509,0.03458c0.79543,-0.01383 1.59086,-0.03458 2.38628,-0.05533c0.08992,-0.00692 0.17292,-0.01383 0.26284,-0.02767c0.23517,-0.03458 0.31126,-0.11758 0.33892,-0.33892c0.01383,-0.09683 0.02075,-0.20059 0.02075,-0.29742c0,-0.88535 0.00692,-1.77069 0.00692,-2.65604c0,-0.42884 -0.13142,-0.56026 -0.55334,-0.55334c-0.77468,0.01383 -1.54936,0.0415 -2.32403,0.06225c-0.11067,0 -0.22134,0.01383 -0.33201,0.03458c-0.2075,0.04842 -0.32509,0.17292 -0.35275,0.38734c-0.00692,0.0415 -0.00692,0.08992 -0.00692,0.13142zM283.16527,156.18245c-2.13037,-0.08992 -4.26765,-0.10375 -6.40493,-0.15217c0,0.00692 0,0.00692 -0.00692,0.02075c-1.34877,-0.03458 -2.69754,-0.06225 -4.04631,-0.09683c-0.81618,-0.02075 -1.63927,-0.04842 -2.45545,-0.07609c-1.18277,-0.03458 -2.36554,-0.07609 -3.5483,-0.11067c-1.2381,-0.03458 -2.47621,-0.07609 -3.71431,-0.10375c-1.48019,-0.03458 -2.9673,-0.06225 -4.44749,-0.08992c-0.14525,-0.00692 -0.2905,0.00692 -0.42884,0.03458c-0.26284,0.05533 -0.41501,0.23517 -0.48417,0.49109c-0.02767,0.09683 -0.03458,0.20059 -0.03458,0.29742c-0.02767,0.71934 -0.04842,1.43869 -0.06225,2.15803c0,0.18676 0.02075,0.37351 0.0415,0.56026c0.02767,0.2905 0.18676,0.47034 0.47726,0.51876c0.18676,0.03458 0.37351,0.06225 0.56026,0.06916c0.66401,0.02075 1.32802,0.0415 1.99203,0.04842c2.85663,0.02075 5.70634,0.0415 8.56296,0.04842c2.91058,0.00463 5.82046,0.00304 8.73104,0.00152h0.00553h0.00623c1.45736,-0.00076 2.91403,-0.00152 4.3714,-0.00152c2.20645,0 4.40598,0 6.60552,0.14525c0.9891,0.06225 1.98511,0.10375 2.98113,0.15909c0.42192,0.02075 0.83693,0.0415 1.25885,0.07609c0.65709,0.05533 1.30727,0.04842 1.95744,-0.00692c0.083,-0.00692 0.17292,-0.01383 0.26284,-0.02075c0.33201,-0.0415 0.49109,-0.20059 0.53259,-0.52567c0.01383,-0.09683 0.02075,-0.20059 0.02075,-0.29742c0.02075,-0.78851 0.03458,-1.57011 0.04842,-2.35862c0,-0.09683 -0.00692,-0.20059 -0.02075,-0.29742c-0.0415,-0.27667 -0.2075,-0.45651 -0.48417,-0.51876c-0.11067,-0.02075 -0.22134,-0.03458 -0.33201,-0.03458c-1.75686,-0.04842 -3.52064,-0.0415 -5.2775,0.00692c-0.3576,0.00892 -0.71589,0.01875 -1.07349,0.02857c-1.86269,0.05111 -3.72607,0.10216 -5.59429,0.02677zM297.6974,156.56979c-0.00692,0.46342 -0.03458,0.92684 -0.04842,1.39027c0,0 -0.00692,0 -0.01383,-0.01383v1.25885c0,0.02048 -0.00069,0.04129 -0.00069,0.06246c-0.00138,0.06495 -0.00277,0.13267 0.00761,0.20038c0.02075,0.21442 0.1245,0.31817 0.33201,0.35275c0.07609,0.01383 0.15217,0.01383 0.22825,0.01383c0.83001,-0.03458 1.65311,-0.06916 2.48312,-0.11758c0.44959,-0.02075 0.56718,-0.14525 0.57409,-0.58793c0.00692,-0.87151 0.01383,-1.74303 0.01383,-2.61454c0,-0.11758 -0.01383,-0.24208 -0.02767,-0.35967c-0.02075,-0.17983 -0.13834,-0.27667 -0.30434,-0.29742c-0.11758,-0.01383 -0.24208,-0.01383 -0.35967,-0.00692c-0.38042,0.01383 -0.75393,0.03458 -1.12743,0.05533c-0.39426,0.02075 -0.79543,0.04842 -1.18969,0.07609c-0.42884,0.03458 -0.56718,0.24901 -0.56718,0.58793zM281.13174,164.31657c-1.50094,-0.05533 -3.00879,-0.11067 -4.50974,-0.166c-0.0996,-0.00332 -0.1992,-0.00692 -0.2995,-0.01044c-0.51737,-0.01833 -1.03959,-0.03686 -1.56111,-0.03106c-1.79145,-0.04842 -3.58288,-0.10375 -5.37433,-0.13142c-3.06413,-0.0415 -6.12826,-0.05533 -9.19239,-0.08992c-0.36659,-0.00692 -0.72626,-0.02075 -1.09285,-0.0415c-0.46342,-0.02767 -0.92684,-0.03458 -1.39027,0.03458c-0.32509,0.04842 -0.49109,0.2075 -0.53951,0.53259c0,0.0415 -0.00692,0.08992 -0.00692,0.13142c-0.02075,0.83001 -0.04842,1.66002 -0.06225,2.49004c-0.00692,0.11758 0.01383,0.24208 0.03458,0.35967c0.0415,0.26975 0.20059,0.44267 0.46342,0.50493c0.13142,0.02767 0.26284,0.0415 0.39426,0.04842c0.498,0.02075 0.99602,0.03458 1.49402,0.0415l6.14209,0.083c2.05428,0.02767 4.11548,0.06916 6.16976,0.06916c3.65206,-0.00692 7.30411,-0.02767 10.95616,-0.06225c2.5177,-0.02075 5.02158,0.04842 7.53236,0.20059c0.42884,0.02767 0.86459,0.04842 1.29343,0.07609c0.62943,0.03458 1.25885,0.083 1.88828,0.10375c0.33684,0.00927 0.67715,0 1.01677,-0.00927c0.16877,-0.00456 0.33684,-0.0092 0.50493,-0.01148c0.07609,0 0.15217,-0.01383 0.22825,-0.02767c0.31126,-0.06225 0.45651,-0.2075 0.51184,-0.52567c0.02075,-0.13834 0.03458,-0.28359 0.0415,-0.42884c0.02075,-0.498 0.0415,-0.99602 0.04842,-1.49402c0,-0.31126 -0.01383,-0.6156 -0.03458,-0.92684c-0.00692,-0.11067 -0.03458,-0.22134 -0.06916,-0.32509c-0.05533,-0.17292 -0.17292,-0.28359 -0.35275,-0.31817c-0.11758,-0.02075 -0.24208,-0.0415 -0.35967,-0.0415c-0.41501,-0.00692 -0.8231,-0.00692 -1.23118,-0.00692c-0.43645,0.00214 -0.8722,0.00166 -1.30727,0.00117c-0.97941,-0.00111 -1.95814,-0.00222 -2.93963,0.02649c-2.80129,0.083 -5.59567,0.0415 -8.39696,-0.05533zM301.28029,167.24928v-1.32802c0.00692,-0.45651 0.00692,-0.9061 -0.00692,-1.35568c0,-0.10375 -0.00692,-0.20059 -0.02767,-0.29742c-0.02767,-0.13142 -0.11758,-0.21442 -0.24901,-0.23517c-0.083,-0.02075 -0.17292,-0.01383 -0.26284,-0.00692c-0.14525,0.00692 -0.28359,0.02767 -0.42884,0.0415c-0.68476,0.07609 -1.36261,0.13834 -2.04737,0.21442c-0.083,0.00692 -0.17292,0.03458 -0.25592,0.06225c-0.15217,0.05533 -0.24901,0.17292 -0.28359,0.33892c-0.01383,0.06916 -0.02075,0.13142 -0.02075,0.20059l-0.06225,2.65604c0,0.083 0,0.17292 0.01383,0.26284c0.02767,0.22134 0.1245,0.31126 0.33892,0.34584c0.06916,0.00692 0.13834,0.01383 0.20059,0.00692c0.25592,-0.02075 0.50493,-0.03458 0.76085,-0.06225c0.57409,-0.05533 1.14127,-0.11758 1.71536,-0.17292c0.49109,-0.04842 0.6156,-0.17983 0.6156,-0.67092zM266.55119,176.31717c3.23013,0.0415 6.46026,0.07609 9.6904,0.11758c0,0 0,-0.00692 0.00692,-0.01383c0.76085,0.00692 1.5286,0.02075 2.28945,0.02767c1.16202,0.02075 2.32403,0.03458 3.48605,-0.02075c1.21735,-0.06225 2.4347,-0.09683 3.65206,-0.07609c1.05827,0.02075 2.12345,0.04842 3.18171,0.083c0.80926,0.02767 1.61161,0.083 2.42087,0.11067c1.14818,0.0415 2.30329,0.06916 3.45147,0.10375c0.11067,0 0.22134,0 0.33201,-0.01383c0.30434,-0.0415 0.47726,-0.20059 0.53259,-0.50493c0.02767,-0.17292 0.0415,-0.34584 0.04842,-0.52567c0.01383,-0.56718 0.03458,-1.12743 0.0415,-1.69461c0.00692,-0.18655 -0.00692,-0.37302 -0.02075,-0.56026c-0.01383,-0.11067 -0.03458,-0.22134 -0.06916,-0.32509c-0.06916,-0.22134 -0.21442,-0.35967 -0.44267,-0.40117c-0.15909,-0.02767 -0.32509,-0.04842 -0.49109,-0.04842c-0.2656,0 -0.53121,-0.00028 -0.79681,-0.00055c-1.06241,-0.00111 -2.12483,-0.00222 -3.18724,0.01439c-1.06518,0.01383 -2.13037,0.04842 -3.18863,0.083c-0.95451,0.02767 -1.90211,0.00692 -2.85663,-0.03458c-1.33494,-0.05533 -2.67679,-0.10375 -4.01172,-0.15909c-0.55334,-0.02075 -1.10669,-0.05533 -1.66002,-0.07609c-0.83001,-0.0415 -1.66002,-0.08992 -2.49004,-0.10375c-2.49695,-0.04842 -5.00083,-0.09683 -7.49778,-0.11758c-2.69754,-0.02075 -5.402,-0.01383 -8.09954,-0.02075c-0.06861,0 -0.13758,0.00249 -0.20668,0.00491c-0.23731,0.00851 -0.47594,0.01702 -0.70634,-0.07408c-0.01404,-0.00471 -0.03133,-0.00304 -0.04745,-0.00146c-0.00768,0.00076 -0.01501,0.00146 -0.02172,0.00146c-0.74701,0 -1.50094,0 -2.25487,0.00692c-0.35275,0.00692 -0.52567,0.15217 -0.60176,0.498c-0.0415,0.18676 -0.06225,0.37351 -0.06225,0.56026c-0.01383,0.70551 -0.01383,1.41794 -0.01383,2.12345c0,0.11758 0.00692,0.24208 0.03458,0.35967c0.06225,0.30434 0.22134,0.45651 0.53259,0.50493c0.11067,0.01383 0.22134,0.02075 0.33201,0.02075c1.33494,0.03458 2.66987,0.06916 4.01172,0.08992c1.56319,0.02767 3.11946,0.0415 4.68265,0.06225zM301.2872,175.41107v-1.32802c0,-0.11399 0.00069,-0.22804 0.00069,-0.34217c0.00138,-0.3428 0.00277,-0.68656 -0.00761,-1.03426c0,-0.09683 0,-0.20059 -0.02075,-0.29742c-0.03458,-0.17983 -0.11067,-0.24208 -0.2905,-0.24901c-0.13142,0 -0.26284,0.00692 -0.39426,0.02075c-0.60176,0.06225 -1.21043,0.13142 -1.81219,0.19367c-0.17292,0.02075 -0.35275,0.0415 -0.52567,0.06225c-0.35275,0.04842 -0.50493,0.2075 -0.53259,0.56026v0.03458c-0.02075,0.89918 -0.0415,1.79145 -0.06225,2.69062c0,0.08992 0.00692,0.17983 0.02075,0.26284c0.0415,0.18676 0.14525,0.2905 0.33892,0.31126c0.11067,0.01383 0.22134,0.01383 0.33201,0c0.80234,-0.07609 1.60469,-0.15909 2.40703,-0.24208c0.07609,-0.00692 0.15217,-0.01383 0.22825,-0.03458c0.15217,-0.03458 0.25592,-0.1245 0.2905,-0.28359c0.02075,-0.10375 0.02767,-0.21442 0.02767,-0.32509zM301.2872,183.53827v-1.29343c0.00692,-0.498 0.00692,-0.99602 -0.00692,-1.49402c0,-0.0415 0,-0.08992 -0.00692,-0.13142c-0.02075,-0.20059 -0.1245,-0.29742 -0.32509,-0.29742c-0.14525,0 -0.28359,0.01383 -0.42884,0.02767c-0.43575,0.0415 -0.87843,0.083 -1.31419,0.13142c-0.35275,0.0415 -0.69859,0.083 -1.05135,0.11758c-0.18676,0.02075 -0.33892,0.10375 -0.41501,0.28359c-0.02767,0.06916 -0.0415,0.15217 -0.0415,0.22825c-0.02767,0.92684 -0.04842,1.8537 -0.06916,2.78054c-0.00692,0.40117 0.15217,0.60867 0.60867,0.56718c0.24208,-0.02075 0.48417,-0.0415 0.72626,-0.06916c0.63634,-0.06225 1.27269,-0.1245 1.90903,-0.19367c0.29742,-0.03458 0.40117,-0.15217 0.41501,-0.45651c0.00484,-0.04565 0.00277,-0.08853 0.00138,-0.13211c-0.00069,-0.02282 -0.00138,-0.04496 -0.00138,-0.06848zM283.1708,185.06757c1.22704,-0.0498 2.45476,-0.10029 3.68802,-0.06986c1.34185,0 2.67679,0.00692 4.04631,0.01383c1.16202,-0.00692 2.32403,-0.02767 3.48605,-0.04842c0.18676,-0.00692 0.38042,-0.02075 0.56026,-0.06225c0.36659,-0.083 0.52567,-0.27667 0.53951,-0.65018c0.02767,-0.84385 0.0415,-1.68078 0.06225,-2.52462c0.00692,-0.09683 0,-0.20059 -0.01383,-0.29742c-0.05533,-0.33892 -0.21442,-0.51184 -0.55334,-0.57409c-0.13834,-0.02767 -0.28359,-0.0415 -0.42884,-0.03458c-0.99602,0.02767 -1.99203,0.06225 -2.98805,0.09683c-0.53259,0.02075 -1.05827,0.05533 -1.59086,0.083c-0.62943,0.03458 -1.25885,0.06225 -1.88828,0.09683c-1.2381,0.06916 -2.47621,0.05533 -3.71431,0.01383c-0.99602,-0.03458 -1.99203,-0.07609 -2.98805,-0.09683c-2.2687,-0.03458 -4.5374,-0.05533 -6.8061,-0.09683c-1.74994,-0.02767 -3.49297,-0.07609 -5.24291,-0.11758c-0.91993,-0.02075 -1.83294,-0.04842 -2.75287,-0.083c-1.48711,-0.04842 -2.9673,-0.11067 -4.44749,-0.17292c-0.35275,-0.01383 -0.70551,-0.0415 -1.05827,-0.06225c-0.6156,-0.03458 -1.2381,-0.07609 -1.8537,-0.10375c-0.40117,-0.02075 -0.79543,-0.03458 -1.1966,-0.02767c-0.38734,0.00692 -0.58101,0.21442 -0.6156,0.59484c-0.00692,0.02767 -0.00692,0.06225 -0.00692,0.09683l-0.06225,2.55229c0,0.07609 0,0.15217 0.01383,0.22825c0.03458,0.24208 0.166,0.40809 0.38734,0.498c0.09683,0.03458 0.19367,0.06225 0.2905,0.06916c0.89918,0.06916 1.80528,0.13834 2.71137,0.19367c0.96143,0.06225 1.92286,0.11067 2.88429,0.15909c1.20352,0.06225 2.40703,0.11758 3.61055,0.17292c0.85076,0.03458 1.70153,0.05533 2.55229,0.08992c1.95744,0.07609 3.91489,0.10375 5.87234,0.09683c0.98218,-0.00692 1.97128,-0.01383 2.95346,-0.01383c0.01383,0 0.02767,0 0.0415,0c0.08577,-0.00138 0.17776,-0.00208 0.24901,0.02767c0.1245,0.05533 0.25592,0.04842 0.38734,0.05533c0.97734,0.02421 1.95468,-0.01937 2.93133,-0.06294c0.15078,-0.00692 0.30088,-0.01383 0.45097,-0.02006c0.16324,-0.00623 0.32647,-0.01314 0.48971,-0.02006zM301.29412,191.81073v-1.45944c0,-0.46342 0,-0.93377 -0.00692,-1.39719c0,-0.02075 0.00069,-0.0415 0.00069,-0.06225c0.00138,-0.06502 0.00277,-0.1328 -0.00761,-0.20059c-0.02767,-0.17983 -0.11067,-0.24901 -0.2905,-0.24901c-0.02767,0 -0.06225,0.00692 -0.09683,0.00692c-0.63634,0.06916 -1.27269,0.13142 -1.90903,0.20059c-0.27667,0.02767 -0.55334,0.05533 -0.8231,0.09683c-0.30434,0.04842 -0.42192,0.17292 -0.44959,0.47726c-0.02767,0.26284 -0.0415,0.53259 -0.04842,0.79543c-0.01383,0.66401 -0.01383,1.32802 -0.02075,1.99203c0,0.083 0,0.15909 0.00692,0.23517c0.02767,0.22825 0.166,0.35967 0.39426,0.37351c0.06156,0.00484 0.12727,-0.00138 0.19367,-0.00761c0.02282,-0.00208 0.04634,-0.00415 0.06916,-0.00623c0.83001,-0.083 1.65311,-0.17292 2.47621,-0.24901c0.35967,-0.03458 0.52567,-0.17292 0.51184,-0.54642zM279.02904,189.43828c-1.9782,-0.00692 -3.95639,-0.01383 -6.14901,-0.02075c-1.58394,-0.03458 -3.37538,-0.06916 -5.15991,-0.11758c-1.0721,-0.02767 -2.1442,-0.05533 -3.21629,-0.08992c-0.70551,-0.02075 -1.41794,-0.04842 -2.12345,-0.07609c-1.18277,-0.04842 -2.36554,-0.10375 -3.5483,-0.15909c-0.02822,0 -0.05561,-0.00069 -0.08244,-0.00138c-0.05222,-0.00138 -0.10251,-0.00346 -0.15272,0.00138c-0.498,0.02767 -0.72626,0.24901 -0.78159,0.73318c-0.00692,0.02767 -0.00692,0.04842 -0.00692,0.06916c-0.06916,0.81618 -0.07609,1.63927 -0.06225,2.45545c0,0.11758 0.02075,0.24208 0.04842,0.35967c0.05533,0.22134 0.19367,0.36659 0.41501,0.43575c0.083,0.02075 0.166,0.04842 0.25592,0.05533c0.27667,0.02767 0.55334,0.04842 0.83001,0.06225c0.66401,0.03458 1.32802,0.06225 1.99203,0.08992c1.37644,0.06225 2.75979,0.1245 4.14315,0.17292c1.31419,0.04842 2.63529,0.06225 3.94947,0.10375c1.15075,0.03389 2.30349,0.03113 3.45631,0.02767h0.00069c0.96005,-0.00277 1.92009,-0.00484 2.87876,0.01383c1.07902,0.02075 2.15803,-0.00553 3.23705,-0.03113c0.35967,-0.00899 0.71934,-0.01729 1.07902,-0.02421c1.25885,-0.02075 2.52462,-0.05533 3.78347,-0.08992c0.65018,-0.02075 1.30727,-0.05533 1.95744,-0.083c1.26577,-0.05533 2.53846,-0.11758 3.81114,-0.166c1.37644,-0.05533 2.75979,-0.08992 4.14315,-0.14525c0.37351,-0.01383 0.74701,-0.06916 1.12052,-0.11758c0.29742,-0.03458 0.48417,-0.28359 0.498,-0.56718c0.04842,-0.9061 0.06225,-1.81219 0.04842,-2.71829c0,-0.09683 -0.02075,-0.19367 -0.0415,-0.2905c-0.05533,-0.24901 -0.22825,-0.37351 -0.47034,-0.40117c-0.11067,-0.01383 -0.22134,-0.01383 -0.33201,-0.00692c-0.36659,0.01383 -0.72626,0.03458 -1.09285,0.05533c-0.91993,0.05533 -1.83986,0.09683 -2.75287,0.15909c-1.30727,0.083 -2.60762,0.17292 -3.90798,0.26284c-1.02368,0.06916 -2.05428,0.07609 -3.08488,0.07609c-1.56319,0 -3.11946,-0.02075 -4.68265,-0.02767zM301.30104,199.82035v-2.84971c0,-0.083 0,-0.15909 -0.00692,-0.23517c-0.02075,-0.20059 -0.09683,-0.27667 -0.29742,-0.27667c-0.09683,0 -0.20059,0.00692 -0.29742,0.01383c-0.80234,0.06225 -1.61161,0.1245 -2.41395,0.18676c-0.44267,0.03458 -0.57409,0.17983 -0.58793,0.62943c-0.02767,0.85076 -0.0415,1.70153 -0.06225,2.55229c0,0.09683 0,0.20059 0.00692,0.29742c0.02767,0.24208 0.14525,0.35967 0.38734,0.37351c0.15217,0.00692 0.31126,0 0.46342,-0.00692c0.76085,-0.04842 1.52169,-0.08992 2.28254,-0.13834c0.08992,-0.00692 0.17983,-0.02075 0.26284,-0.0415c0.14525,-0.03458 0.22134,-0.13834 0.24901,-0.27667c0.01383,-0.06916 0.01383,-0.15217 0.01383,-0.22825zM271.17159,200.92012c1.88136,0.03458 3.76273,0.05533 5.64408,0.083v-0.04842c0.36244,0 0.72349,0.00069 1.08524,0.00138h0.00138c0.72073,0.00138 1.44076,0.00346 2.16426,-0.00138c3.40997,-0.03458 6.81302,-0.07609 10.22299,-0.10375c1.25194,-0.01383 2.49695,-0.00692 3.74889,-0.01383c0.04496,0 0.08992,0.00069 0.13488,0.00069c0.13488,0.00138 0.26837,0.00277 0.39771,-0.00761c0.40809,-0.02767 0.64326,-0.26284 0.69168,-0.67092c0.00692,-0.05533 0.00692,-0.11067 0.00692,-0.166v-2.19262c0,-0.11758 -0.00692,-0.24208 -0.03458,-0.35967c-0.08992,-0.38734 -0.2905,-0.57409 -0.69168,-0.58793c-0.31817,-0.00692 -0.64326,0.00692 -0.96143,0.02075c-0.29742,0.00692 -0.59484,0.02767 -0.89226,0.0415c-1.25194,0.04842 -2.49695,0.09683 -3.74889,0.15217c-0.53259,0.02075 -1.05827,0.06225 -1.59086,0.083c-0.2075,0.00899 -0.41501,0.01867 -0.62251,0.02836c-0.94275,0.04358 -1.88828,0.08715 -2.82896,0.04772c-0.40117,-0.02075 -0.79543,-0.03458 -1.1966,-0.0415c-3.6313,-0.04842 -7.25569,-0.083 -10.887,-0.13142c-1.3211,-0.01383 -2.63529,-0.04842 -3.94947,-0.083c-0.97526,-0.02767 -1.94361,-0.06916 -2.91888,-0.11758c-0.85768,-0.0415 -1.72227,-0.09683 -2.57995,-0.15217c-0.80234,-0.04842 -1.61161,-0.11067 -2.41395,-0.166c-0.2905,-0.01383 -0.57409,-0.02075 -0.86459,-0.02075c-0.41501,0 -0.63634,0.2075 -0.67785,0.65018c-0.00692,0.02767 -0.00692,0.04842 -0.00692,0.06916c-0.01383,0.84385 -0.03458,1.68078 -0.04842,2.52462c-0.00692,0.10375 0.01383,0.21442 0.03458,0.32509c0.0415,0.20059 0.17292,0.33892 0.35275,0.41501c0.11067,0.04842 0.23517,0.07609 0.35275,0.083c0.80926,0.04842 1.61161,0.10375 2.42087,0.13142c1.10669,0.0415 2.21336,0.06916 3.32005,0.08992c2.10962,0.0415 4.22615,0.083 6.33576,0.11758zM276.75342,220.9995c0.69859,0.24901 1.77069,-0.0415 2.09578,-0.95451c-0.06916,-0.04842 -0.11758,-0.08992 -0.17983,-0.13834c-0.33892,-0.23517 -0.67785,-0.45651 -1.00985,-0.69859c-1.50786,-1.10669 -2.56612,-2.54537 -3.19555,-4.30223c-0.45651,-1.27269 -0.62943,-2.59379 -0.65018,-3.94256c-0.00415,-0.27806 -0.00069,-0.55611 0.00277,-0.83416c0.00208,-0.18537 0.00415,-0.37074 0.00415,-0.55611c0,-0.06571 0.00069,-0.13142 0.00069,-0.19782c0.00138,-0.1992 0.00277,-0.40048 -0.00761,-0.59761c-0.02767,-0.52567 -0.26975,-0.95451 -0.70551,-1.25194c-0.86459,-0.59484 -1.78452,-0.66401 -2.73213,-0.22134c-0.54642,0.25592 -0.84385,0.70551 -0.88535,1.30727c-0.02075,0.26284 -0.00692,0.53259 0.02075,0.79543c0.17292,1.50094 0.55334,2.95346 1.10669,4.35756c1.05135,2.67679 2.71829,4.87633 5.01466,6.5986c0.11758,0.083 0.23517,0.17292 0.35275,0.24901c0.24208,0.15909 0.498,0.2905 0.76776,0.38734zM271.32375,221.20009c0.27667,0.00692 0.51184,-0.09683 0.7401,-0.24208c-0.0415,-0.25592 -0.15217,-0.47034 -0.33892,-0.65018c-0.30434,-0.31126 -0.60176,-0.62251 -0.89918,-0.93377c-1.04444,-1.09285 -1.92286,-2.3102 -2.63529,-3.64513c-0.92684,-1.74303 -1.50786,-3.58288 -1.70153,-5.54725c-0.0415,-0.44959 -0.07609,-0.9061 -0.1245,-1.35568c-0.083,-0.77468 -0.47726,-1.31419 -1.23118,-1.57011c-0.38042,-0.13142 -0.78159,-0.166 -1.17585,-0.08992c-0.65709,0.1245 -1.12743,0.49109 -1.33494,1.14818c-0.06916,0.21442 -0.07609,0.43575 -0.05533,0.65709c0.06225,0.67785 0.166,1.34185 0.32509,1.99895c0.28359,1.14818 0.71934,2.2272 1.25194,3.27855c1.3211,2.60071 3.18863,4.7449 5.43658,6.57785c0.13834,0.11067 0.2905,0.20059 0.44267,0.2905c0.22825,0.13142 0.48417,0.17292 0.7401,0.1245c0.18676,-0.0415 0.37351,-0.04842 0.56026,-0.0415zM278.47569,221.62201c-0.02075,1.20352 -0.05533,2.41395 -0.083,3.61747c0.00692,0 0.02075,0 0.0415,0.00692c-0.03458,1.00293 -0.06225,2.01278 -0.08992,3.01571c-0.00484,0.166 -0.00277,0.33477 -0.00138,0.50423c0.00069,0.08577 0.00138,0.17084 0.00138,0.25661c0,0.06916 0.00692,0.13834 0.02075,0.20059c0.0415,0.15217 0.15909,0.24208 0.31817,0.22825c0.44267,-0.0415 0.77468,-0.24901 0.97526,-0.65018c0.083,-0.166 0.13142,-0.34584 0.13142,-0.53951c0,-0.07885 -0.00069,-0.15632 -0.00138,-0.23448c-0.00138,-0.15424 -0.00346,-0.30779 0.00138,-0.46412l0.083,-3.71431c0,-0.0415 0.00692,-0.08992 0.00692,-0.13142c0.01383,-0.22134 0.083,-0.28359 0.2905,-0.24901c0.166,0.02767 0.32509,0.06225 0.49109,0.08992c1.55627,0.28359 3.0918,0.65018 4.59965,1.13435c0.67785,0.21442 1.34185,0.45651 2.00586,0.69859c0.41501,0.15217 0.83001,0.22134 1.26577,0.11067c0.80234,-0.20059 1.61161,-0.38042 2.40703,-0.60867c1.43869,-0.40809 2.82896,-0.94068 4.15006,-1.65311c1.72227,-0.92684 3.23705,-2.11653 4.4959,-3.61747c1.22427,-1.45944 2.09578,-3.11255 2.75287,-4.89016c0.03458,-0.083 0.06225,-0.17292 0.083,-0.25592c0.10375,-0.38042 0.17292,-0.75393 0.15217,-1.14818c-0.00692,-0.10375 -0.00692,-0.20059 -0.03458,-0.29742c-0.06916,-0.24208 -0.21442,-0.32509 -0.44959,-0.24901c-0.13142,0.0415 -0.24901,0.09683 -0.36659,0.15909c-0.65709,0.33892 -1.31419,0.68476 -1.97128,1.02368c-1.18277,0.62251 -2.38628,1.20352 -3.6313,1.70153c-2.07503,0.83693 -4.2054,1.50094 -6.37035,2.04737c-2.00586,0.50493 -4.01865,0.97526 -6.03142,1.44561c-0.96835,0.22134 -1.94361,0.33892 -2.93271,0.28359c-0.24901,-0.01383 -0.49109,-0.00692 -0.73318,0c-0.25592,0.01383 -0.498,0.083 -0.67092,0.29742c-0.05533,0.06225 -0.1245,0.1245 -0.18676,0.18676c-0.46342,0.47034 -0.70551,1.0306 -0.71934,1.69461zM280.54381,223.21978c-0.19367,-0.03458 -0.40117,-0.02767 -0.58101,-0.14525c-0.00138,-0.00899 -0.00346,-0.01867 -0.00553,-0.02836c-0.00623,-0.03458 -0.01383,-0.07055 -0.0083,-0.10306c0,-0.55334 0,-1.10669 0.00692,-1.66002c0.00692,-0.35275 0.11067,-0.44959 0.47034,-0.42884c1.23118,0.07609 2.45545,-0.05533 3.65897,-0.30434c2.91196,-0.59484 5.80317,-1.28652 8.64596,-2.16495c2.1027,-0.65018 4.15006,-1.43869 6.15592,-2.3517c0.71243,-0.31817 1.42486,-0.64326 2.1442,-0.96143c0.02767,-0.01383 0.05533,-0.02767 0.08992,-0.0415c0.166,-0.06225 0.27667,0.02075 0.23517,0.18676c-0.05533,0.21442 -0.11758,0.42884 -0.2075,0.62943c-0.67092,1.49402 -1.55627,2.84971 -2.69062,4.03939c-1.16202,1.21735 -2.52462,2.17187 -4.02556,2.93963c-1.43869,0.73318 -2.94654,1.25885 -4.50281,1.66002c-0.63634,0.15909 -1.28652,0.29742 -1.9367,0.43575c-0.18676,0.0415 -0.37351,0.05533 -0.56026,0.06225c-0.2075,0.01383 -0.41501,-0.02767 -0.6156,-0.10375c-2.04044,-0.7401 -4.14315,-1.25885 -6.27351,-1.66002zM271.49667,246.01746c0.083,0.00692 0.17292,0.03458 0.25592,0.05533c0.84385,0 1.68078,0 2.54537,0.02075c0.11067,-0.02075 0.21442,-0.04842 0.32509,-0.05533c0.59484,-0.02767 1.1966,-0.06225 1.79145,-0.07609c1.25194,-0.0415 2.49695,-0.13142 3.73506,-0.2905c1.1966,-0.15217 2.38628,-0.33201 3.56905,-0.58101c1.54244,-0.32509 3.0503,-0.75393 4.51665,-1.3211c1.00293,-0.38734 1.95744,-0.87151 2.83587,-1.50094c0.32509,-0.23517 0.63634,-0.47726 0.91301,-0.76776c0.58793,-0.6156 0.89918,-1.34877 0.89918,-2.21336c-0.00484,-1.29966 -0.00277,-2.59586 -0.00138,-3.89345v-0.00138c0.00069,-0.64948 0.00138,-1.29966 0.00138,-1.94984c0,-0.11067 -0.01383,-0.22134 -0.02767,-0.33201c-0.01383,-0.06225 -0.00692,-0.13834 -0.09683,-0.17292c-0.15217,0.04842 -0.26284,0.17292 -0.38042,0.2905c-0.33892,0.33201 -0.70551,0.63634 -1.09976,0.9061c-0.69168,0.47034 -1.41794,0.85768 -2.1857,1.18277c-1.70844,0.71934 -3.48605,1.21043 -5.29133,1.59777c-0.98218,0.21442 -1.9782,0.38042 -2.97421,0.51184c-0.62943,0.083 -1.25194,0.15217 -1.88136,0.2075c-0.76776,0.06916 -1.54244,0.1245 -2.31712,0.15909c-0.98218,0.0415 -1.97128,0.06225 -2.95346,0.06916c-1.30451,0.00623 -2.60292,-0.05741 -3.90638,-0.12173c-0.11344,-0.00553 -0.22694,-0.01106 -0.34052,-0.0166c-1.10669,-0.05533 -2.21336,-0.15909 -3.30622,-0.30434c-0.95451,-0.1245 -1.90211,-0.27667 -2.84971,-0.43575c-1.64619,-0.28359 -3.27163,-0.66401 -4.8694,-1.1551c-1.48019,-0.45651 -2.92579,-1.00985 -4.30915,-1.70844c-0.92684,-0.47726 -1.79145,-1.04444 -2.55229,-1.77069c-0.17983,-0.17292 -0.35967,-0.33201 -0.53951,-0.498l-0.00595,-0.00623c-0.03894,-0.03873 -0.0738,-0.07401 -0.14622,-0.02144c-0.00692,0.13834 -0.02075,0.29742 -0.02075,0.44959c-0.00692,1.91595 -0.00692,3.82498 -0.01383,5.74092c-0.00692,0.79543 0.23517,1.50786 0.75393,2.10962c0.24208,0.28359 0.51184,0.55334 0.78851,0.80234c0.71243,0.63634 1.53552,1.12052 2.38628,1.54936c1.45944,0.7401 2.98113,1.28652 4.55123,1.72919c1.52169,0.42884 3.06413,0.78159 4.62041,1.04444c0.85076,0.14525 1.70153,0.24901 2.55921,0.35967c0.52567,0.06916 1.05827,0.11067 1.58394,0.15217c0.80234,0.06225 1.61161,0.11758 2.41395,0.17983c0.33892,0.02767 0.68476,0.04842 1.02368,0.07609z" data-paper-data="{&quot;isPathIcon&quot;:true}"></path></g></g></g><g class="watermark-group" style="opacity:0.040000010281801224"><path class="watermark-path" d="M129.52,370.3a11.88,11.88,0,0,1,2.58,5.58,12,12,0,0,1,.11,3,11.81,11.81,0,0,1-.64,2.93,12.34,12.34,0,0,1-1.41,2.72,11.65,11.65,0,0,1-2.13,2.32,12,12,0,0,1-2.64,1.69,13,13,0,0,1-2.91.9,12.47,12.47,0,0,1-3,.12,12.17,12.17,0,0,1-2.93-.64,11.8,11.8,0,0,1-2.72-1.38,12.19,12.19,0,0,1-4-4.79,11.85,11.85,0,0,1-.89-2.92,12.14,12.14,0,0,1-.13-3,11.54,11.54,0,0,1,.64-2.92,11.67,11.67,0,0,1,3.5-5,11.44,11.44,0,0,1,2.67-1.69,11.64,11.64,0,0,1,2.92-.91,10.71,10.71,0,0,1,3-.12,11.68,11.68,0,0,1,5.66,2,11.7,11.7,0,0,1,2.34,2.12m-1.4,8.76a13,13,0,0,1-1.22,2.32,9.68,9.68,0,0,1-1.81,2,7.44,7.44,0,0,1-2.38,1.37,6.17,6.17,0,0,1-5.11-.46,8.73,8.73,0,0,1-3.85-4.58,6.69,6.69,0,0,1-.34-2.66,6.09,6.09,0,0,1,.77-2.47,7.15,7.15,0,0,1,1.75-2.11,9.58,9.58,0,0,1,1.09-.81,8.23,8.23,0,0,1,1.12-.63,8.14,8.14,0,0,1,1.19-.46,12.71,12.71,0,0,1,1.32-.37l2,2.38a12.83,12.83,0,0,0-1.56.17,7.86,7.86,0,0,0-1.23.32,4.5,4.5,0,0,0-1,.49,6.41,6.41,0,0,0-.93.67,4.49,4.49,0,0,0-1.15,1.39,3.87,3.87,0,0,0-.45,1.58,4.12,4.12,0,0,0,.26,1.63,6.11,6.11,0,0,0,2.36,2.82,4.43,4.43,0,0,0,1.57.53,3.91,3.91,0,0,0,1.62-.17,4.71,4.71,0,0,0,1.57-.89,10.5,10.5,0,0,0,.83-.79,5.71,5.71,0,0,0,.65-.93,10.13,10.13,0,0,0,.54-1.14,12.24,12.24,0,0,0,.44-1.49l2,2.33m-14.46,4.55a8.86,8.86,0,0,0,2.78,2.22,9,9,0,0,0,3.29.94,9.15,9.15,0,0,0,3.39-.37,8.68,8.68,0,0,0,3.11-1.69,8.8,8.8,0,0,0,2.22-2.78,9.15,9.15,0,0,0,1-3.29,8.95,8.95,0,0,0-4.83-8.76,9,9,0,0,0-6.73-.57,9,9,0,0,0-5.33,4.47,8.94,8.94,0,0,0-.57,6.71,8.76,8.76,0,0,0,1.7,3.12"></path><path class="watermark-path" d="M147,349c-.48.12-1.09.31-1.82.57a24.37,24.37,0,0,0-2.4,1A28.35,28.35,0,0,0,140,352a20.72,20.72,0,0,0-2.71,1.94c-.7.59-1.28,1.11-1.74,1.57a15.07,15.07,0,0,0-1.1,1.22,4.09,4.09,0,0,0-.59.92,2.32,2.32,0,0,0-.22.64,1.16,1.16,0,0,0,0,.47,1.83,1.83,0,0,0,.18.29,1.15,1.15,0,0,0,1,.37,5.54,5.54,0,0,0,1.51-.38q.87-.35,1.95-.9l2.26-1.18q1.2-.65,2.49-1.29c.87-.44,1.73-.83,2.59-1.17a18.94,18.94,0,0,1,2.6-.81,9.27,9.27,0,0,1,2.46-.29,6.25,6.25,0,0,1,2.24.49,5.12,5.12,0,0,1,1.89,1.47,6.35,6.35,0,0,1,1.41,2.61,6,6,0,0,1,.09,2.6,8.3,8.3,0,0,1-.9,2.52,17.79,17.79,0,0,1-1.62,2.37,23.92,23.92,0,0,1-2,2.15c-.72.67-1.41,1.29-2.09,1.87a33.79,33.79,0,0,1-5.33,3.7,32.29,32.29,0,0,1-4.91,2.28l-3.61-4.3a21.38,21.38,0,0,0,5.39-1.87,27.2,27.2,0,0,0,5.4-3.56,21.59,21.59,0,0,0,2.38-2.27,8.67,8.67,0,0,0,1.18-1.7,2.32,2.32,0,0,0,.27-1.19,1.34,1.34,0,0,0-.28-.74,1.21,1.21,0,0,0-1-.42,4.32,4.32,0,0,0-1.55.34,15.77,15.77,0,0,0-2,.88c-.72.37-1.48.77-2.27,1.21l-2.45,1.3c-.85.45-1.7.85-2.56,1.21a22.37,22.37,0,0,1-2.54.86,10,10,0,0,1-2.43.32,5.76,5.76,0,0,1-2.2-.45,5,5,0,0,1-1.89-1.45,6.12,6.12,0,0,1-1.31-2.41,6,6,0,0,1-.1-2.41,8.28,8.28,0,0,1,.81-2.38,14.06,14.06,0,0,1,1.49-2.24,22.37,22.37,0,0,1,1.85-2.05q1-1,2-1.77c.7-.59,1.44-1.15,2.23-1.7s1.62-1.06,2.44-1.53,1.63-.91,2.43-1.3,1.58-.75,2.3-1L147,349"></path><path class="watermark-path" d="M186.76,337.57l-10.6-12.63,3.92,18.24-4.66,3.91-17.27-7,10.6,12.63-4.86,4.07-15.09-18,6.59-5.54,18.69,7.52-4.15-19.71,6.57-5.52,15.09,18-4.83,4.05"></path><path class="watermark-path" d="M208.84,313.24l-10,8.42,1.16,4.82L194.56,331l-5.68-25.89,5.42-4.55,24.51,10.09-5.42,4.55-4.55-2m-11.23,3.45,6.57-5.52-8.83-3.87,2.26,9.39"></path><path class="watermark-path" d="M227.49,281.38c-.48.12-1.09.31-1.82.57a24.37,24.37,0,0,0-2.4,1,26.11,26.11,0,0,0-2.7,1.47,20.72,20.72,0,0,0-2.71,1.94c-.7.59-1.28,1.11-1.74,1.57a13.39,13.39,0,0,0-1.1,1.22,4.29,4.29,0,0,0-.59.91,2.48,2.48,0,0,0-.22.65,1.16,1.16,0,0,0,0,.47,1.83,1.83,0,0,0,.18.29,1.15,1.15,0,0,0,1,.37,5.54,5.54,0,0,0,1.51-.38q.87-.34,2-.9l2.26-1.18q1.2-.64,2.49-1.29c.87-.44,1.73-.83,2.59-1.17a18.94,18.94,0,0,1,2.6-.81,9.27,9.27,0,0,1,2.46-.29,6.08,6.08,0,0,1,2.24.49,5.09,5.09,0,0,1,1.89,1.46,6.47,6.47,0,0,1,1.41,2.61,6.07,6.07,0,0,1,.09,2.61,8.3,8.3,0,0,1-.9,2.52,16.32,16.32,0,0,1-1.63,2.36,21.41,21.41,0,0,1-2,2.16c-.72.67-1.41,1.29-2.1,1.86a33.36,33.36,0,0,1-5.32,3.71,31.92,31.92,0,0,1-4.92,2.28l-3.6-4.3a21.38,21.38,0,0,0,5.39-1.87,27.2,27.2,0,0,0,5.4-3.56,21.59,21.59,0,0,0,2.38-2.27,8.67,8.67,0,0,0,1.18-1.7A2.32,2.32,0,0,0,231,293a1.34,1.34,0,0,0-.28-.74,1.21,1.21,0,0,0-1-.42,4.32,4.32,0,0,0-1.55.34,16.54,16.54,0,0,0-2,.88c-.71.37-1.47.77-2.26,1.21l-2.46,1.3c-.84.44-1.7.85-2.55,1.21a24.53,24.53,0,0,1-2.54.86A10,10,0,0,1,214,298a5.76,5.76,0,0,1-2.2-.45,5,5,0,0,1-1.89-1.45,6.12,6.12,0,0,1-1.31-2.41,5.78,5.78,0,0,1-.1-2.41,8,8,0,0,1,.81-2.38,14.61,14.61,0,0,1,1.49-2.25,22.26,22.26,0,0,1,1.85-2q1-1,2-1.77c.7-.59,1.44-1.15,2.23-1.7s1.62-1.06,2.44-1.53,1.63-.91,2.43-1.31,1.58-.74,2.3-1l3.5,4.16"></path><path class="watermark-path" d="M261.64,274.74l-6.29-7.5L243,277.61l6.3,7.5-4.86,4.07-15.09-18,4.85-4.08,5.49,6.55L252,263.3l-5.49-6.55,4.86-4.07,15.09,18-4.86,4.08"></path><path class="watermark-path" d="M272.18,265.9l-15.09-18,4.86-4.08,15.09,18-4.86,4.08"></path><path class="watermark-path" d="M299.65,242.85l-22.51-2.18L287.51,253l-4.85,4.08-15.1-18,5.28-4.43,22.56,2.22L285,224.5l4.83-4.06,15.09,18-5.26,4.42"></path><path class="watermark-path" d="M306.68,205.52a31.88,31.88,0,0,1,5.29-3.66,34.48,34.48,0,0,1,5.14-2.35l3.69,4.39a20.77,20.77,0,0,0-2.37.61,20.47,20.47,0,0,0-2.61,1,25.12,25.12,0,0,0-2.76,1.49,23.9,23.9,0,0,0-2.8,2,20.42,20.42,0,0,0-2.8,2.77,12.77,12.77,0,0,0-1.64,2.52,7,7,0,0,0-.68,2.24,6,6,0,0,0,.66,3.64,8.16,8.16,0,0,0,.94,1.38,9.12,9.12,0,0,0,1.08,1.07,6.39,6.39,0,0,0,1.47.91,6.73,6.73,0,0,0,1.88.48,6.54,6.54,0,0,0,2.28-.18,11.67,11.67,0,0,0,2.74-1.07,19.38,19.38,0,0,0,3.18-2.22c.57-.48,1.06-.92,1.46-1.31a14.57,14.57,0,0,0,1-1.13,11.46,11.46,0,0,0,.81-1.05l.74-1.09-1.82-2.17-5.45,4.57-3.31-3.94,10.31-8.65,7.71,9.19a29,29,0,0,1-1.67,2.43q-1,1.26-2.1,2.52c-.74.84-1.5,1.65-2.3,2.44s-1.58,1.5-2.33,2.14a31,31,0,0,1-3.59,2.61,22.55,22.55,0,0,1-3.64,1.83,15.64,15.64,0,0,1-3.63.89,10.72,10.72,0,0,1-3.49-.15,10.45,10.45,0,0,1-3.28-1.33,12.54,12.54,0,0,1-3-2.67,12,12,0,0,1-2.08-3.44,10.45,10.45,0,0,1-.71-3.5,11.14,11.14,0,0,1,.51-3.51,15.72,15.72,0,0,1,1.56-3.43,21.62,21.62,0,0,1,2.42-3.28,30.3,30.3,0,0,1,3.15-3"></path><path class="watermark-path" d="M336.91,211.59l-15.1-18,4.86-4.08,11.79,14,13.13-11,3.31,3.94-18,15.1"></path><path class="watermark-path" d="M374.54,164.71a12.28,12.28,0,0,1,2.59,4.81,10.44,10.44,0,0,1,0,5,14.62,14.62,0,0,1-2.33,5,25.55,25.55,0,0,1-4.56,4.85,26.07,26.07,0,0,1-5.6,3.67,14.79,14.79,0,0,1-5.38,1.43,10.43,10.43,0,0,1-4.94-.89,13.24,13.24,0,0,1-6.87-8.18,10.48,10.48,0,0,1,0-5,14.51,14.51,0,0,1,2.36-5,25.23,25.23,0,0,1,4.57-4.89,25,25,0,0,1,5.59-3.64,14.45,14.45,0,0,1,5.35-1.43,10.31,10.31,0,0,1,4.93.92,12.22,12.22,0,0,1,4.28,3.38m-4.91,4.11a8.36,8.36,0,0,0-2-1.72,5.5,5.5,0,0,0-2.65-.85,7.72,7.72,0,0,0-3.32.57,14.49,14.49,0,0,0-4,2.52,16.72,16.72,0,0,0-2.38,2.4,10.15,10.15,0,0,0-1.39,2.24,6.71,6.71,0,0,0-.56,2.1,5.69,5.69,0,0,0,.1,1.9,6.21,6.21,0,0,0,.61,1.69,9.85,9.85,0,0,0,1,1.44,10.48,10.48,0,0,0,1.26,1.23,6.67,6.67,0,0,0,1.57.92,6.1,6.1,0,0,0,1.85.41,6.8,6.8,0,0,0,2.15-.2,11.06,11.06,0,0,0,2.45-1,17.67,17.67,0,0,0,2.77-1.94,14.39,14.39,0,0,0,3.18-3.52,7.74,7.74,0,0,0,1.14-3.17,5.54,5.54,0,0,0-.37-2.74,8.52,8.52,0,0,0-1.36-2.3"></path><path class="watermark-path" d="M382.66,141.76A32.3,32.3,0,0,1,388,138.1a34.12,34.12,0,0,1,5.15-2.35l3.69,4.4a19.62,19.62,0,0,0-2.37.6,22.08,22.08,0,0,0-2.61,1,26,26,0,0,0-2.77,1.49,23.9,23.9,0,0,0-2.8,2,21,21,0,0,0-2.8,2.78,13.19,13.19,0,0,0-1.64,2.51,7.29,7.29,0,0,0-.68,2.24,6.36,6.36,0,0,0,.06,2,5.8,5.8,0,0,0,.61,1.68,8.12,8.12,0,0,0,.93,1.38,9.16,9.16,0,0,0,1.08,1.08,6.56,6.56,0,0,0,1.48.9,6,6,0,0,0,1.87.48,6.76,6.76,0,0,0,2.28-.17,12,12,0,0,0,2.74-1.08,18.57,18.57,0,0,0,3.18-2.22c.58-.48,1.06-.92,1.46-1.31s.75-.77,1.05-1.12.57-.72.81-1.06l.73-1.09-1.82-2.17-5.45,4.57-3.3-3.94,10.3-8.65,7.71,9.19a29,29,0,0,1-1.67,2.43q-1,1.26-2.1,2.52c-.73.84-1.5,1.66-2.3,2.44s-1.57,1.5-2.33,2.14a31,31,0,0,1-3.59,2.61,22.15,22.15,0,0,1-3.64,1.83,15.56,15.56,0,0,1-3.62.89,11,11,0,0,1-3.49-.14,10.84,10.84,0,0,1-3.28-1.33,12.82,12.82,0,0,1-3-2.68,12.12,12.12,0,0,1-2.08-3.43A10.71,10.71,0,0,1,375,155a11.18,11.18,0,0,1,.51-3.51,15.51,15.51,0,0,1,1.57-3.43,21.44,21.44,0,0,1,2.42-3.28,30.19,30.19,0,0,1,3.14-3"></path><path class="watermark-path" d="M428.63,119.31a12.26,12.26,0,0,1,2.59,4.82,10.44,10.44,0,0,1,0,5,14.53,14.53,0,0,1-2.34,5,25.29,25.29,0,0,1-4.56,4.86,26,26,0,0,1-5.59,3.67,14.84,14.84,0,0,1-5.38,1.43,10.61,10.61,0,0,1-4.95-.89,12.15,12.15,0,0,1-4.3-3.37,12,12,0,0,1-2.56-4.81,10.48,10.48,0,0,1,0-5,14.39,14.39,0,0,1,2.35-5,27.89,27.89,0,0,1,10.16-8.53,14.49,14.49,0,0,1,5.36-1.43,10.27,10.27,0,0,1,4.92.92,12.21,12.21,0,0,1,4.28,3.37m-4.91,4.12a8.17,8.17,0,0,0-2-1.72,5.58,5.58,0,0,0-2.65-.86,7.86,7.86,0,0,0-3.31.58,14.49,14.49,0,0,0-4,2.52,16.21,16.21,0,0,0-2.38,2.4,9.85,9.85,0,0,0-1.4,2.24,7,7,0,0,0-.56,2.1,6,6,0,0,0,.1,1.9,6.23,6.23,0,0,0,.62,1.69,8.49,8.49,0,0,0,1,1.44,9.18,9.18,0,0,0,1.26,1.23,6.67,6.67,0,0,0,1.57.92,6,6,0,0,0,1.84.41,6.86,6.86,0,0,0,2.16-.2,11.26,11.26,0,0,0,2.45-1,17.62,17.62,0,0,0,2.76-1.94,14.67,14.67,0,0,0,3.19-3.52,7.71,7.71,0,0,0,1.13-3.17,5.53,5.53,0,0,0-.36-2.74,8.55,8.55,0,0,0-1.37-2.3"></path></g></svg>
